<?xml version="1.0" encoding="utf-8"?>
<!-- Generator: Adobe Illustrator 21.0.2, SVG Export Plug-In . SVG Version: 6.00 Build 0)  -->
<svg version="1.1" id="Ebene_1" xmlns="http://www.w3.org/2000/svg" xmlns:xlink="http://www.w3.org/1999/xlink" x="0px" y="0px"
	 viewBox="0 0 660 1713" style="enable-background:new 0 0 660 1713;" xml:space="preserve">
<style type="text/css">
	.st0{opacity:0.451;fill:#188B70;}
	.st1{fill:#9CD1B8;}
</style>
<g>
	<polygon class="st0" points="660,0 660,131.2 660,131.2 	"/>
	<path class="st1" d="M363.5,119c0,0,98.5-11,171.9,46.9c14.6-19.4,37.8-32,63.9-32c16.6,0,32,5,44.7,13.7c4.5-6.2,9.9-11.7,16-16.4
		l0,1581.8H281.8c-23-196.6,77.9-570.2,82.2-713c6.8-223.6-148.5-389.7-250.6-474.2c-57.4-47.5-61.2-134.5-8.1-186.7
		c26.4-26,54.6-56.9,76.2-102.7c20.2-42.8,54.8-77.4,98.3-96.2C302.4,130.4,330,122.5,363.5,119z"/>
</g>
</svg>
