<?xml version="1.0" encoding="utf-8"?>
<!-- Generator: Adobe Illustrator 21.0.2, SVG Export Plug-In . SVG Version: 6.00 Build 0)  -->
<svg version="1.1" id="Ebene_1" xmlns="http://www.w3.org/2000/svg" xmlns:xlink="http://www.w3.org/1999/xlink" x="0px" y="0px"
	 viewBox="0 0 1280 710" style="enable-background:new 0 0 1280 710;" xml:space="preserve">
<style type="text/css">
	.st0{fill:#FFFFFF;}
	.st1{opacity:0.75;}
	.st2{fill:#C8C8C8;}
	.st3{fill:#DCDCDC;}
	.st4{fill:none;stroke:#8C8C8C;stroke-width:4;stroke-miterlimit:10;}
	.st5{fill:#8C8C8C;}
	.st6{fill:#8C8C8C;stroke:#8C8C8C;stroke-width:4;stroke-miterlimit:10;}
</style>
<polygon points="743.9,378.5 679.5,378.5 606.5,378.5 542.1,378.5 457.8,555.2 606.5,555.2 679.5,555.2 828.2,555.2 "/>
<polygon class="st0" points="729.2,388.7 670.6,388.7 615.4,388.7 554.8,388.7 503.9,522 615.4,522 670.6,522 782.1,522 "/>
<rect x="457.8" y="555.2" class="st1" width="370.3" height="32.8"/>
<rect y="116" class="st2" width="1280" height="148"/>
<path class="st3" d="M290,327c-18.2,0-33-61.3-33-137s14.8-137,33-137h703.7c18.2,0,33,61.3,33,137s-14.8,137-33,137H290z"/>
<path class="st4" d="M623.1,364.8c9.3-9.3,24.5-9.3,33.8,0"/>
<path class="st4" d="M616.5,358.2c13-13,34-13,46.9,0"/>
<path class="st4" d="M629.9,371.6c5.6-5.6,14.6-5.6,20.2,0"/>
<g>
	<path class="st5" d="M528.8,243l1.7,1.7l-2.2,2.3l-1.8-1.8c-1.8,1.2-3.9,1.8-6.1,1.8c-3.2,0-6.3-1.2-8.2-3.7
		c-1.8-2.3-2.6-5.1-2.6-8.1c0-3,0.8-5.8,2.6-8.1c1.9-2.4,4.9-3.6,8.2-3.6c3.2,0,6.2,1.2,8.1,3.6c1.9,2.3,2.5,5.1,2.6,8.1
		C531.1,238.2,530.5,240.8,528.8,243z M524.1,242.7l-2.1-2.1l2.2-2.2l2.1,2.1c0.9-1.5,1.2-3.4,1.2-5.2c0-2.1-0.4-4.3-1.7-5.9
		c-1.2-1.6-3.2-2.5-5.3-2.4c-2.1,0-4.2,0.8-5.3,2.4c-1.3,1.6-1.6,3.8-1.7,5.9c0,2.1,0.4,4.3,1.7,5.9c1.2,1.6,3.3,2.5,5.3,2.4
		C521.7,243.7,523,243.3,524.1,242.7z"/>
	<path class="st5" d="M547.9,237.8l4.3,8.7h-4l-3.9-8h-5.9v8h-3.5V224h9.9c0.8,0,1.6,0.1,2.3,0.4c1.3,0.4,2.5,1.3,3.4,2.4
		c1,1.3,1.6,2.9,1.7,4.5c0,1.6-0.6,3.2-1.6,4.4C549.9,236.6,549,237.3,547.9,237.8z M538.4,235.2h6.4c1,0,2.2-0.6,2.9-1.5
		c0.5-0.7,0.9-1.5,0.8-2.4c0-1-0.4-1.9-1-2.6c-0.7-0.8-1.8-1.3-2.8-1.3h-6.4V235.2z"/>
	<path class="st5" d="M563.8,236.2v2.8h-9.4v-2.8H563.8z"/>
	<path class="st5" d="M587.6,239.9c-0.4,1.2-1,2.4-1.8,3.4c-2,2.5-5,3.7-8.2,3.7c-3.3,0-6.3-1.3-8.1-3.7c-1.9-2.3-2.6-5.1-2.6-8.1
		c0-3,0.8-5.8,2.6-8.1c1.9-2.4,4.9-3.6,8.1-3.6c3.2,0,6.2,1.2,8.2,3.6c1,1.3,1.6,2.7,2,4.1l-3.6,0.6c-0.3-0.9-0.6-1.8-1.2-2.5
		c-1.3-1.6-3.3-2.5-5.4-2.5s-4.1,0.8-5.3,2.5c-1.3,1.6-1.7,3.8-1.7,5.9s0.4,4.3,1.7,5.9c1.2,1.6,3.2,2.5,5.3,2.4
		c2.1,0,4.1-0.8,5.4-2.4c0.5-0.7,0.9-1.5,1.1-2.3L587.6,239.9z"/>
	<path class="st5" d="M592.3,244.2c-1.4-1.8-2-3.9-2-6.1c0-2.3,0.7-4.5,2-6.1c1.5-1.8,3.9-2.8,6.3-2.8c2.4,0,4.8,0.9,6.3,2.8
		c1.5,1.8,2,3.9,2,6.1c0,2.3-0.6,4.3-2,6.1c-1.5,1.9-3.8,2.8-6.3,2.8C596.2,247,593.8,246,592.3,244.2z M603.3,238.1
		c0-1.4-0.3-2.9-1.1-4s-2.1-1.6-3.5-1.6c-1.4,0-2.8,0.5-3.5,1.6c-0.8,1.1-1.1,2.6-1.1,4s0.3,2.9,1.1,4c0.8,1.1,2.1,1.6,3.5,1.6
		c1.4,0,2.7-0.6,3.5-1.6S603.3,239.5,603.3,238.1z"/>
	<path class="st5" d="M625.6,224v22.5h-3.1v-1.4c-1.3,1.3-3.2,1.9-5.3,1.9c-2.3,0-4.4-1-5.8-2.7c-1.4-1.8-1.9-3.9-1.9-6.2
		c0-2.3,0.6-4.5,1.9-6.2c1.4-1.8,3.6-2.7,5.9-2.7c1.8,0,3.4,0.6,4.7,1.6V224H625.6z M622.5,238.1c0-1.7-0.4-3.3-1.3-4.3
		c-0.8-1-2-1.4-3.3-1.4c-1.5,0-2.8,0.5-3.6,1.7c-0.7,1-1.1,2.5-1.1,4.1s0.3,3,1,4c0.8,1.2,2.2,1.7,3.6,1.7s2.6-0.5,3.4-1.5
		C622.1,241.3,622.5,239.7,622.5,238.1z"/>
	<path class="st5" d="M633.9,242c0.8,1.1,2.1,1.6,3.5,1.6s2.7-0.6,3.5-1.6c0.2-0.3,0.3-0.5,0.4-0.7l3.5,1.5c-0.3,0.5-0.6,1-1,1.4
		c-1.6,1.8-4,2.8-6.4,2.7c-2.5-0.1-4.8-0.9-6.3-2.8c-1.4-1.8-2-3.9-2-6.1c0.1-2.3,0.6-4.4,2-6.1c1.5-1.8,3.9-2.8,6.3-2.8
		s4.8,0.9,6.3,2.8c1.4,1.7,2,3.9,2,6.1c0,0.3,0,0.7-0.1,1h-12.8C633,240.1,633.2,241.2,633.9,242z M633.9,234.1
		c-0.5,0.6-0.8,1.3-0.9,2.1h8.8c-0.2-0.8-0.4-1.5-0.9-2.1c-0.8-1.1-2.1-1.7-3.5-1.6C636,232.4,634.7,233,633.9,234.1z"/>
	<path class="st5" d="M668.7,230.7c-0.6-1.3-1.2-2.3-2.3-2.9c-0.8-0.5-1.9-0.9-3-0.9c-1.1,0-2.2,0.2-3,0.7c-0.9,0.5-1.4,1.4-1.4,2.3
		c0,0.6,0.2,1.1,0.6,1.5c0.5,0.5,1.6,1,2.8,1.3l4,1.2c1.8,0.5,3.1,1.2,4.1,2.1c1.3,1.2,2,2.8,2,4.6c0,1.9-1.1,3.9-2.8,5.1
		c-1.7,1.2-3.7,1.5-6,1.5c-3,0-5.5-0.8-7.3-3.1c-1-1.3-1.6-2.8-1.9-4.3l3.6-1c0.2,1.2,0.6,2.2,1.2,3c1,1.4,2.9,2,4.6,2
		c1.3,0,2.9-0.3,3.8-1c0.8-0.6,1.1-1.5,1.1-2.3c0-0.7-0.3-1.4-0.8-1.9c-0.6-0.6-1.3-0.9-2.3-1.2l-4.2-1.2c-1.6-0.5-3.1-1.1-4.3-2.1
		c-1.3-1.1-1.8-2.7-1.8-4.2c0-2.3,1.5-4.4,3.5-5.3c1.6-0.8,3.1-0.9,4.6-0.9c1.6,0,3.3,0.3,4.7,1.1c1.9,1,3.3,2.8,4.2,5L668.7,230.7z
		"/>
	<path class="st5" d="M687,234.8c-0.1-0.3-0.3-0.5-0.4-0.7c-0.8-1.1-2.1-1.7-3.5-1.6c-1.4,0-2.7,0.5-3.5,1.6c-0.8,1.1-1.1,2.5-1.1,4
		c0,1.4,0.3,2.9,1.1,4c0.8,1.1,2.1,1.6,3.5,1.6s2.7-0.5,3.5-1.6c0.2-0.2,0.3-0.4,0.4-0.7l3.3,1.4c-0.3,0.5-0.6,0.9-0.9,1.4
		c-1.5,1.8-3.9,2.8-6.3,2.8c-2.4,0.1-4.8-0.9-6.3-2.8c-1.4-1.7-2-3.9-2-6.1c0-2.3,0.6-4.4,2-6.1c1.6-1.9,3.9-2.8,6.3-2.8
		c2.5,0,4.8,0.9,6.3,2.8c0.4,0.5,0.7,0.9,0.9,1.4L687,234.8z"/>
	<path class="st5" d="M693.2,232.8c0.1-0.2,0.3-0.4,0.4-0.6c1.5-2.1,3.8-3,6.4-3c3.1,0,5.6,1.1,6.9,3.5c0.6,1.1,0.8,2.2,0.8,3.2
		v10.6h-3.1v-3.1c-0.4,1.1-1.5,2-2.5,2.5c-1.3,0.7-2.7,1-4.1,1c-1.7,0-3.4-0.9-4.3-2.1c-0.8-1.1-1.2-2-1.2-3.3c0-1.8,1-3.5,2.6-4.4
		c1.8-1,3.4-1.1,5.9-1.5l3-0.4c-0.2-0.8-0.6-1.5-1.3-2c-0.8-0.6-1.8-0.8-2.9-0.8c-1.3,0-2.4,0.4-3.2,1.3c-0.1,0.2-0.3,0.3-0.4,0.5
		L693.2,232.8z M700.7,238.7c-2.2,0.4-4.6,0.8-4.6,2.6c0,1.3,1.1,2.4,2.6,2.4c2,0,4.4-1,5.1-3.1c0.4-1,0.4-1.8,0.4-2.5
		C703.6,238.2,702.5,238.4,700.7,238.7z"/>
	<path class="st5" d="M727.1,238.1v8.4h-3.6v-8.4c0-1.9-0.3-3.6-1.4-4.6c-0.7-0.6-1.7-0.9-2.9-0.9c-0.9,0-1.7,0.3-2.3,0.8
		c-0.7,0.6-1.2,1.4-1.3,2.4c-0.2,0.9-0.2,2.1-0.2,3.3v7.4h-3.5v-16.9h3.1v1.4l0.1-0.1c1.3-1.2,3.1-1.7,4.7-1.8
		c1.8-0.1,3.7,0.5,5,1.7C726.8,232.7,727.1,235.1,727.1,238.1z"/>
	<path class="st5" d="M746.2,238.1v8.4h-3.6v-8.4c0-1.9-0.3-3.6-1.4-4.6c-0.7-0.6-1.7-0.9-2.9-0.9c-0.9,0-1.7,0.3-2.3,0.8
		c-0.7,0.6-1.2,1.4-1.3,2.4c-0.2,0.9-0.2,2.1-0.2,3.3v7.4h-3.5v-16.9h3.1v1.4l0.1-0.1c1.3-1.2,3.1-1.7,4.7-1.8
		c1.8-0.1,3.7,0.5,5,1.7C745.9,232.7,746.2,235.1,746.2,238.1z"/>
	<path class="st5" d="M753.9,242c0.8,1.1,2.1,1.6,3.5,1.6s2.7-0.6,3.5-1.6c0.2-0.3,0.3-0.5,0.4-0.7l3.5,1.5c-0.3,0.5-0.6,1-1,1.4
		c-1.6,1.8-4,2.8-6.4,2.7c-2.5-0.1-4.8-0.9-6.3-2.8c-1.4-1.8-2-3.9-2-6.1c0.1-2.3,0.6-4.4,2-6.1c1.5-1.8,3.9-2.8,6.3-2.8
		s4.8,0.9,6.3,2.8c1.4,1.7,2,3.9,2,6.1c0,0.3,0,0.7-0.1,1h-12.8C753,240.1,753.2,241.2,753.9,242z M753.9,234.1
		c-0.5,0.6-0.8,1.3-0.9,2.1h8.8c-0.2-0.8-0.4-1.5-0.9-2.1c-0.8-1.1-2.1-1.7-3.5-1.6C756,232.4,754.7,233,753.9,234.1z"/>
	<path class="st5" d="M779.9,229.6v3.3c-0.8-0.3-1.8-0.5-2.9-0.4c-1.3,0.1-2.3,0.5-2.9,1.2c-1.1,1.1-1.3,2.5-1.3,4.2v8.6h-3.5v-16.9
		h3.1v2.4c0.4-0.7,0.9-1.3,1.7-1.8c1-0.7,2.2-1,3.3-1.1C778.1,229.1,779,229.3,779.9,229.6z"/>
</g>
<g>
	<path class="st5" d="M1055.4,415.7v0.8c-0.1,2.9-0.8,5.7-2.6,7.9c-2,2.5-5,3.7-8.2,3.7c-3.2,0-6.3-1.2-8.1-3.7
		c-1.9-2.3-2.5-5.2-2.6-8.1c0.1-3,0.8-5.8,2.6-8.1c1.8-2.4,4.9-3.7,8.1-3.7c3.3,0,6.2,1.3,8.2,3.7c0.4,0.5,0.7,1,1,1.6l-3.3,1.5
		c-0.2-0.3-0.4-0.7-0.6-1c-1.2-1.6-3.3-2.5-5.3-2.4c-2.1,0-4.1,0.8-5.4,2.4c-1.2,1.6-1.6,3.8-1.6,5.9c0,2.1,0.4,4.3,1.6,5.9
		c1.3,1.6,3.3,2.5,5.4,2.4c2.1,0,4.1-0.8,5.3-2.4c0.8-1.1,1.2-2.3,1.4-3.7h-5.4v-2.8H1055.4z"/>
	<path class="st5" d="M1069.6,410.6v3.3c-0.8-0.3-1.8-0.5-2.9-0.4c-1.3,0.1-2.3,0.5-2.9,1.2c-1.1,1.1-1.3,2.5-1.3,4.2v8.6h-3.5
		v-16.9h3.1v2.4c0.4-0.7,0.9-1.3,1.7-1.8c1-0.7,2.2-1,3.3-1.1C1067.8,410.1,1068.7,410.3,1069.6,410.6z"/>
	<path class="st5" d="M1076.4,404.7v3.3h-3.5v-3.3H1076.4z M1076.4,410.6v16.9h-3.5v-16.9H1076.4z"/>
	<path class="st5" d="M1096.9,410.2v0.4h4.6v2.8h-4.6v14.1h-3.5v-14.1h-7v14.1h-3.5v-14.1h-3.6v-2.8h3.6v-0.1c0-1.3,0.3-3.1,1.6-4.4
		c1.7-1.6,4.1-1.7,6.6-1.5v3.1c-0.8-0.1-1.8-0.2-2.5,0c-1.7,0.3-2.1,1.2-2.1,2.6v0.4h7v-0.1c0-1.3,0.3-3.1,1.6-4.4
		c1.7-1.6,4.1-1.7,6.6-1.5v3.1c-0.8-0.1-1.8-0.2-2.5,0C1097.3,407.9,1096.9,408.8,1096.9,410.2z"/>
	<path class="st5" d="M1125.7,405v22.5h-3.1v-1.4c-1.3,1.3-3.2,1.9-5.3,1.9c-2.3,0-4.4-1-5.8-2.7c-1.4-1.8-1.9-3.9-1.9-6.2
		c0-2.3,0.6-4.5,1.9-6.2c1.4-1.8,3.6-2.7,5.9-2.7c1.8,0,3.4,0.6,4.7,1.6V405H1125.7z M1122.6,419.1c0-1.7-0.4-3.3-1.3-4.3
		c-0.8-1-2-1.4-3.3-1.4c-1.5,0-2.8,0.5-3.6,1.7c-0.7,1-1.1,2.5-1.1,4.1s0.3,3,1,4c0.8,1.2,2.2,1.7,3.6,1.7s2.6-0.5,3.4-1.5
		C1122.2,422.3,1122.6,420.7,1122.6,419.1z"/>
	<path class="st5" d="M1134,423c0.8,1.1,2.1,1.6,3.5,1.6s2.7-0.6,3.5-1.6c0.2-0.3,0.3-0.5,0.4-0.7l3.5,1.5c-0.3,0.5-0.6,1-1,1.4
		c-1.6,1.8-4,2.8-6.4,2.7c-2.5-0.1-4.8-0.9-6.3-2.8c-1.4-1.8-2-3.9-2-6.1c0.1-2.3,0.6-4.4,2-6.1c1.5-1.8,3.9-2.8,6.3-2.8
		s4.8,0.9,6.3,2.8c1.4,1.7,2,3.9,2,6.1c0,0.3,0,0.7-0.1,1H1133C1133.1,421.1,1133.4,422.2,1134,423z M1134,415.1
		c-0.5,0.6-0.8,1.3-0.9,2.1h8.8c-0.2-0.8-0.4-1.5-0.9-2.1c-0.8-1.1-2.1-1.7-3.5-1.6C1136.1,413.4,1134.8,414,1134,415.1z"/>
	<path class="st5" d="M1158.6,415.9c-0.3-0.8-0.9-1.6-1.7-1.9c-0.6-0.3-1.3-0.5-2.1-0.5c-0.8,0-1.6,0.2-2.1,0.4
		c-0.6,0.3-0.8,0.8-0.8,1.2c0,0.3,0.1,0.6,0.3,0.8c0.3,0.4,1,0.7,1.9,0.9c0.8,0.3,1.9,0.5,2.9,0.8c1.3,0.4,2.3,0.7,3.3,1.5
		c1.3,1.1,2,2.4,1.9,4c-0.1,1.5-1,2.9-2.3,3.7c-1.3,0.9-3,1.1-4.7,1.1c-2.3,0-4.3-0.6-5.8-2.2c-0.8-1-1.7-2.7-1.8-3.7l3.4-0.8
		c0,0.7,0.4,1.7,0.9,2.3c0.8,0.9,2,1.2,3.2,1.2c0.9,0,2.2-0.2,2.8-0.7c0.4-0.3,0.6-0.7,0.7-1.2c0-0.4-0.1-0.8-0.5-1.2
		c-0.5-0.4-1.2-0.7-2.1-0.9s-1.8-0.5-2.8-0.8c-1.4-0.4-2.4-0.8-3.3-1.5c-1.1-0.8-1.7-2.2-1.7-3.3c0-2,1.3-3.6,3-4.3
		c1.3-0.6,2.5-0.7,3.7-0.7c1.2,0,2.4,0.3,3.6,0.8c1.7,0.8,3,2.3,3.6,4.1L1158.6,415.9z"/>
	<path class="st5" d="M980.9,444.5v6h9v3.5h-9v6h10.8v3.5h-14.4V441h14.4v3.5H980.9z"/>
	<path class="st5" d="M999.7,440.7v3.3h-3.5v-3.3H999.7z M999.7,446.6v16.9h-3.5v-16.9H999.7z"/>
	<path class="st5" d="M1019.7,455.1v8.4h-3.6v-8.4c0-1.9-0.3-3.6-1.4-4.6c-0.7-0.6-1.7-0.9-2.9-0.9c-0.9,0-1.7,0.3-2.3,0.8
		c-0.7,0.6-1.2,1.4-1.3,2.4c-0.2,0.9-0.2,2.1-0.2,3.3v7.4h-3.5v-16.9h3.1v1.4l0.1-0.1c1.3-1.2,3.1-1.7,4.7-1.8
		c1.8-0.1,3.7,0.5,5,1.7C1019.4,449.7,1019.7,452.1,1019.7,455.1z"/>
	<path class="st5" d="M1027,463.5h-3.6V441h3.6v11.9h2.4l4.3-6.3h4l-5.3,7.7l6,9.2h-4l-5.1-7.8h-2.4V463.5z"/>
	<path class="st5" d="M1040.3,449.8c0.1-0.2,0.3-0.4,0.4-0.6c1.5-2.1,3.8-3,6.4-3c3.1,0,5.6,1.1,6.9,3.5c0.6,1.1,0.8,2.2,0.8,3.2
		v10.6h-3.1v-3.1c-0.4,1.1-1.5,2-2.5,2.5c-1.3,0.7-2.7,1-4.1,1c-1.7,0-3.4-0.9-4.3-2.1c-0.8-1.1-1.2-2-1.2-3.3c0-1.8,1-3.5,2.6-4.4
		c1.8-1,3.4-1.1,5.9-1.5l3-0.4c-0.2-0.8-0.6-1.5-1.3-2c-0.8-0.6-1.8-0.8-2.9-0.8c-1.3,0-2.4,0.4-3.2,1.3c-0.1,0.2-0.3,0.3-0.4,0.5
		L1040.3,449.8z M1047.9,455.7c-2.2,0.4-4.6,0.8-4.6,2.6c0,1.3,1.1,2.4,2.6,2.4c2,0,4.4-1,5.1-3.1c0.4-1,0.4-1.8,0.4-2.5
		C1050.8,455.2,1049.7,455.4,1047.9,455.7z"/>
	<path class="st5" d="M1073.7,446.6v16.9h-3.1V462l-0.1,0.1c-1.3,1.2-3.1,1.8-4.7,1.8c-1.8,0.1-3.7-0.5-5-1.7
		c-2.2-1.8-2.5-4.3-2.5-7.3v-8.4h3.6v8.4c0,1.9,0.3,3.6,1.4,4.6c0.7,0.7,1.7,0.9,2.9,0.9c0.9,0,1.7-0.3,2.3-0.8
		c0.7-0.5,1.2-1.4,1.4-2.4c0.2-0.9,0.2-2.1,0.2-3.3v0v-7.3H1073.7z"/>
	<path class="st5" d="M1083.3,446.2v0.4h4.6v2.8h-4.6v14.1h-3.5v-14.1h-3.6v-2.8h3.6v-0.1c0-1.3,0.3-3.1,1.6-4.4
		c1.7-1.6,4.1-1.7,6.6-1.5v3.1c-0.8-0.1-1.8-0.2-2.5,0C1083.7,443.9,1083.3,444.8,1083.3,446.2z"/>
	<path class="st5" d="M1100.3,451.9c-0.3-0.8-0.9-1.6-1.7-1.9c-0.6-0.3-1.3-0.5-2.1-0.5c-0.8,0-1.6,0.2-2.1,0.4
		c-0.6,0.3-0.8,0.8-0.8,1.2c0,0.3,0.1,0.6,0.3,0.8c0.3,0.4,1,0.7,1.9,0.9c0.8,0.3,1.9,0.5,2.9,0.8c1.3,0.4,2.3,0.7,3.3,1.5
		c1.3,1.1,2,2.4,1.9,4c-0.1,1.5-1,2.9-2.3,3.7c-1.3,0.9-3,1.1-4.7,1.1c-2.3,0-4.3-0.6-5.8-2.2c-0.8-1-1.7-2.7-1.8-3.7l3.4-0.8
		c0,0.7,0.4,1.7,0.9,2.3c0.8,0.9,2,1.2,3.2,1.2c0.9,0,2.2-0.2,2.8-0.7c0.4-0.3,0.6-0.7,0.7-1.2c0-0.4-0.1-0.8-0.5-1.2
		c-0.5-0.4-1.2-0.7-2.1-0.9s-1.8-0.5-2.8-0.8c-1.4-0.4-2.4-0.8-3.3-1.5c-1.1-0.8-1.7-2.2-1.7-3.3c0-2,1.3-3.6,3-4.3
		c1.3-0.6,2.5-0.7,3.7-0.7c1.2,0,2.4,0.3,3.6,0.8c1.7,0.8,3,2.3,3.6,4.1L1100.3,451.9z"/>
	<path class="st5" d="M1128.3,446.6l-5.2,16.9h-3.5l-3.2-11.2l-3.4,11.2h-3.3l-5.2-16.9l3.5,0l3.4,11.2l3.4-11.2h3l3.4,11.2
		l3.4-11.2H1128.3z"/>
	<path class="st5" d="M1130.2,449.8c0.1-0.2,0.3-0.4,0.4-0.6c1.5-2.1,3.8-3,6.4-3c3.1,0,5.6,1.1,6.9,3.5c0.6,1.1,0.8,2.2,0.8,3.2
		v10.6h-3.1v-3.1c-0.4,1.1-1.5,2-2.5,2.5c-1.3,0.7-2.7,1-4.1,1c-1.7,0-3.4-0.9-4.3-2.1c-0.8-1.1-1.2-2-1.2-3.3c0-1.8,1-3.5,2.6-4.4
		c1.8-1,3.4-1.1,5.9-1.5l3-0.4c-0.2-0.8-0.6-1.5-1.3-2c-0.8-0.6-1.8-0.8-2.9-0.8c-1.3,0-2.4,0.4-3.2,1.3c-0.1,0.2-0.3,0.3-0.4,0.5
		L1130.2,449.8z M1137.7,455.7c-2.2,0.4-4.6,0.8-4.6,2.6c0,1.3,1.1,2.4,2.6,2.4c2,0,4.4-1,5.1-3.1c0.4-1,0.4-1.8,0.4-2.5
		C1140.6,455.2,1139.5,455.4,1137.7,455.7z"/>
	<path class="st5" d="M1163.9,446.6v17.5c0,2.7-0.9,4.7-2.9,6c-1.7,1.1-3.4,1.3-5,1.3c-1.4,0-3-0.4-4.1-1.3c-1-0.5-2-1.4-2.6-2.4
		l3.3-1.6c0.2,0.4,0.5,0.7,0.8,0.9c0.7,0.7,1.8,1,2.7,1c1.2,0,2.3-0.3,3.1-1c1-0.8,1.3-1.6,1.2-3.1v-1.7c-1.3,1-3,1.5-4.8,1.5
		c-2.3,0-4.4-1-5.8-2.7c-1.4-1.8-1.9-3.9-1.9-6.2c0-2.3,0.6-4.5,1.9-6.2c1.4-1.8,3.6-2.7,5.9-2.7c2,0,3.8,0.7,5.2,1.9v-1.5H1163.9z
		 M1159.6,459.3c0.9-1,1.3-2.7,1.3-4.3c0-1.7-0.4-3.3-1.3-4.3c-0.8-1-2-1.4-3.3-1.4c-1.5,0-2.8,0.5-3.6,1.7c-0.7,1-1.1,2.5-1.1,4.1
		s0.3,3,1,4c0.8,1.2,2.2,1.7,3.6,1.7S1158.7,460.3,1159.6,459.3z"/>
	<path class="st5" d="M1172.2,459c0.8,1.1,2.1,1.6,3.5,1.6s2.7-0.6,3.5-1.6c0.2-0.3,0.3-0.5,0.4-0.7l3.5,1.5c-0.3,0.5-0.6,1-1,1.4
		c-1.6,1.8-4,2.8-6.4,2.7c-2.5-0.1-4.8-0.9-6.3-2.8c-1.4-1.8-2-3.9-2-6.1c0.1-2.3,0.6-4.4,2-6.1c1.5-1.8,3.9-2.8,6.3-2.8
		s4.8,0.9,6.3,2.8c1.4,1.7,2,3.9,2,6.1c0,0.3,0,0.7-0.1,1h-12.8C1171.3,457.1,1171.6,458.2,1172.2,459z M1172.2,451.1
		c-0.5,0.6-0.8,1.3-0.9,2.1h8.8c-0.2-0.8-0.4-1.5-0.9-2.1c-0.8-1.1-2.1-1.7-3.5-1.6C1174.3,449.4,1173,450,1172.2,451.1z"/>
	<path class="st5" d="M1202.7,455.1v8.4h-3.6v-8.4c0-1.9-0.3-3.6-1.4-4.6c-0.7-0.6-1.7-0.9-2.9-0.9c-0.9,0-1.7,0.3-2.3,0.8
		c-0.7,0.6-1.2,1.4-1.3,2.4c-0.2,0.9-0.2,2.1-0.2,3.3v7.4h-3.5v-16.9h3.1v1.4l0.1-0.1c1.3-1.2,3.1-1.7,4.7-1.8
		c1.8-0.1,3.7,0.5,5,1.7C1202.4,449.7,1202.8,452.1,1202.7,455.1z"/>
	<path class="st5" d="M1216.4,451.9c-0.3-0.8-0.9-1.6-1.7-1.9c-0.6-0.3-1.3-0.5-2.1-0.5c-0.8,0-1.6,0.2-2.1,0.4
		c-0.6,0.3-0.8,0.8-0.8,1.2c0,0.3,0.1,0.6,0.3,0.8c0.3,0.4,1,0.7,1.9,0.9c0.8,0.3,1.9,0.5,2.9,0.8c1.3,0.4,2.3,0.7,3.3,1.5
		c1.3,1.1,2,2.4,1.9,4c-0.1,1.5-1,2.9-2.3,3.7c-1.3,0.9-3,1.1-4.7,1.1c-2.3,0-4.3-0.6-5.8-2.2c-0.8-1-1.7-2.7-1.8-3.7l3.4-0.8
		c0,0.7,0.4,1.7,0.9,2.3c0.8,0.9,2,1.2,3.2,1.2c0.9,0,2.2-0.2,2.8-0.7c0.4-0.3,0.6-0.7,0.7-1.2c0-0.4-0.1-0.8-0.5-1.2
		c-0.5-0.4-1.2-0.7-2.1-0.9s-1.8-0.5-2.8-0.8c-1.4-0.4-2.4-0.8-3.3-1.5c-1.1-0.8-1.7-2.2-1.7-3.3c0-2,1.3-3.6,3-4.3
		c1.3-0.6,2.5-0.7,3.7-0.7c1.2,0,2.4,0.3,3.6,0.8c1.7,0.8,3,2.3,3.6,4.1L1216.4,451.9z"/>
</g>
<g>
	<path class="st5" d="M348.4,384.5V407h-3.1v-1.4c-1.3,1.3-3.2,1.9-5.3,1.9c-2.3,0-4.4-1-5.8-2.7c-1.4-1.8-1.9-3.9-1.9-6.2
		c0-2.3,0.6-4.5,1.9-6.2c1.4-1.8,3.6-2.7,5.9-2.7c1.8,0,3.4,0.6,4.7,1.6v-6.7H348.4z M345.3,398.6c0-1.7-0.4-3.3-1.3-4.3
		c-0.8-1-2-1.4-3.3-1.4c-1.5,0-2.8,0.5-3.6,1.7c-0.7,1-1.1,2.5-1.1,4.1s0.3,3,1,4c0.8,1.2,2.2,1.7,3.6,1.7s2.6-0.5,3.4-1.5
		C345,401.8,345.3,400.2,345.3,398.6z"/>
	<path class="st5" d="M352.5,393.3c0.1-0.2,0.3-0.4,0.4-0.6c1.5-2.1,3.8-3,6.4-3c3.1,0,5.6,1.1,6.9,3.5c0.6,1.1,0.8,2.2,0.8,3.2V407
		H364v-3.1c-0.4,1.1-1.5,2-2.5,2.5c-1.3,0.7-2.7,1-4.1,1c-1.7,0-3.4-0.9-4.3-2.1c-0.8-1.1-1.2-2-1.2-3.3c0-1.8,1-3.5,2.6-4.4
		c1.8-1,3.4-1.1,5.9-1.5l3-0.4c-0.2-0.8-0.6-1.5-1.3-2c-0.8-0.6-1.8-0.8-2.9-0.8c-1.3,0-2.4,0.4-3.2,1.3c-0.1,0.2-0.3,0.3-0.4,0.5
		L352.5,393.3z M360,399.3c-2.2,0.4-4.6,0.8-4.6,2.6c0,1.3,1.1,2.4,2.6,2.4c2,0,4.4-1,5.1-3.1c0.4-1,0.4-1.8,0.4-2.5
		C362.9,398.7,361.9,398.9,360,399.3z"/>
	<path class="st5" d="M386.4,398.7v8.4h-3.6v-8.4c0-1.9-0.3-3.6-1.4-4.6c-0.7-0.6-1.7-0.9-2.9-0.9c-0.9,0-1.7,0.3-2.3,0.8
		c-0.7,0.6-1.2,1.4-1.3,2.4c-0.2,0.9-0.2,2.1-0.2,3.3v7.4h-3.5v-22.5h3.1v7.1l0.1-0.1c1.3-1.2,3.1-1.7,4.7-1.8
		c1.8-0.1,3.7,0.5,5,1.7C386.1,393.2,386.5,395.7,386.4,398.7z"/>
	<path class="st5" d="M394,384.3v3.3h-3.5v-3.3H394z M394,390.2V407h-3.5v-16.9H394z"/>
	<path class="st5" d="M414,398.7v8.4h-3.6v-8.4c0-1.9-0.3-3.6-1.4-4.6c-0.7-0.6-1.7-0.9-2.9-0.9c-0.9,0-1.7,0.3-2.3,0.8
		c-0.7,0.6-1.2,1.4-1.3,2.4c-0.2,0.9-0.2,2.1-0.2,3.3v7.4h-3.5v-16.9h3.1v1.4l0.1-0.1c1.3-1.2,3.1-1.7,4.7-1.8
		c1.8-0.1,3.7,0.5,5,1.7C413.7,393.2,414.1,395.7,414,398.7z"/>
	<path class="st5" d="M423.1,392.9v7.1c0,1.3,0,2.3,0.4,2.9c0.4,0.7,1.1,1.1,1.8,1.1c0.8,0.1,1.9,0.1,2.8-0.1v3.1
		c-1.3,0.3-3.3,0.4-4.4,0.1c-1.5-0.4-2.7-1.1-3.3-2.4c-0.7-1.3-0.7-2.8-0.7-4.5v-7.3h-3.6v-2.8h3.6v-4.7h3.5v4.7h5v2.8H423.1z"/>
	<path class="st5" d="M435.7,402.6c0.8,1.1,2.1,1.6,3.5,1.6s2.7-0.6,3.5-1.6c0.2-0.3,0.3-0.5,0.4-0.7l3.5,1.5c-0.3,0.5-0.6,1-1,1.4
		c-1.6,1.8-4,2.8-6.4,2.7c-2.5-0.1-4.8-0.9-6.3-2.8c-1.4-1.8-2-3.9-2-6.1c0.1-2.3,0.6-4.4,2-6.1c1.5-1.8,3.9-2.8,6.3-2.8
		s4.8,0.9,6.3,2.8c1.4,1.7,2,3.9,2,6.1c0,0.3,0,0.7-0.1,1h-12.8C434.8,400.7,435.1,401.8,435.7,402.6z M435.7,394.6
		c-0.5,0.6-0.8,1.3-0.9,2.1h8.8c-0.2-0.8-0.4-1.5-0.9-2.1c-0.8-1.1-2.1-1.7-3.5-1.6C437.8,393,436.5,393.5,435.7,394.6z"/>
	<path class="st5" d="M461.7,390.1v3.3c-0.8-0.3-1.8-0.5-2.9-0.4c-1.3,0.1-2.3,0.5-2.9,1.2c-1.1,1.1-1.3,2.5-1.3,4.2v8.6H451v-16.9
		h3.1v2.4c0.4-0.7,0.9-1.3,1.7-1.8c1-0.7,2.2-1,3.3-1.1C459.9,389.7,460.8,389.8,461.7,390.1z"/>
	<path class="st5" d="M191.3,426.2l-6.2,16.9h-3.5l-6.1-16.9h3.5l4.4,12.5l4.4-12.5H191.3z"/>
	<path class="st5" d="M197.6,438.6c0.8,1.1,2.1,1.6,3.5,1.6s2.7-0.6,3.5-1.6c0.2-0.3,0.3-0.5,0.4-0.7l3.5,1.5c-0.3,0.5-0.6,1-1,1.4
		c-1.6,1.8-4,2.8-6.4,2.7c-2.5-0.1-4.8-0.9-6.3-2.8c-1.4-1.8-2-3.9-2-6.1c0.1-2.3,0.6-4.4,2-6.1c1.5-1.8,3.9-2.8,6.3-2.8
		s4.8,0.9,6.3,2.8c1.4,1.7,2,3.9,2,6.1c0,0.3,0,0.7-0.1,1h-12.8C196.7,436.7,197,437.8,197.6,438.6z M197.6,430.6
		c-0.5,0.6-0.8,1.3-0.9,2.1h8.8c-0.2-0.8-0.4-1.5-0.9-2.1c-0.8-1.1-2.1-1.7-3.5-1.6C199.7,429,198.4,429.5,197.6,430.6z"/>
	<path class="st5" d="M223.6,426.1v3.3c-0.8-0.3-1.8-0.5-2.9-0.4c-1.3,0.1-2.3,0.5-2.9,1.2c-1.1,1.1-1.3,2.5-1.3,4.2v8.6h-3.5v-16.9
		h3.1v2.4c0.4-0.7,0.9-1.3,1.7-1.8c1-0.7,2.2-1,3.3-1.1C221.9,425.7,222.7,425.8,223.6,426.1z"/>
	<path class="st5" d="M242.7,434.6c0,2.3-0.5,4.4-1.9,6.2s-3.6,2.7-5.8,2.7c-2.1,0-3.9-0.6-5.2-1.9v1.4h-3.1v-22.5h3.5v6.7
		c1.3-1,3-1.6,4.7-1.6c2.3,0,4.5,0.9,5.9,2.7C242.1,430.1,242.7,432.3,242.7,434.6z M239,434.6c0-1.6-0.3-3.1-1-4.1
		c-0.8-1.2-2.1-1.7-3.6-1.7c-1.3,0-2.6,0.5-3.3,1.4c-0.9,1.1-1.3,2.7-1.3,4.3c0,1.6,0.4,3.3,1.3,4.3c0.8,1,2.1,1.5,3.5,1.5
		c1.3,0,2.7-0.5,3.5-1.7C238.7,437.6,239,436.2,239,434.6z"/>
	<path class="st5" d="M245.8,429.3c0.1-0.2,0.3-0.4,0.4-0.6c1.5-2.1,3.8-3,6.4-3c3.1,0,5.6,1.1,6.9,3.5c0.6,1.1,0.8,2.2,0.8,3.2V443
		h-3.1v-3.1c-0.4,1.1-1.5,2-2.5,2.5c-1.3,0.7-2.7,1-4.1,1c-1.7,0-3.4-0.9-4.3-2.1c-0.8-1.1-1.2-2-1.2-3.3c0-1.8,1-3.5,2.6-4.4
		c1.8-1,3.4-1.1,5.9-1.5l3-0.4c-0.2-0.8-0.6-1.5-1.3-2c-0.8-0.6-1.8-0.8-2.9-0.8c-1.3,0-2.4,0.4-3.2,1.3c-0.1,0.2-0.3,0.3-0.4,0.5
		L245.8,429.3z M253.3,435.3c-2.2,0.4-4.6,0.8-4.6,2.6c0,1.3,1.1,2.4,2.6,2.4c2,0,4.4-1,5.1-3.1c0.4-1,0.4-1.8,0.4-2.5
		C256.2,434.7,255.2,434.9,253.3,435.3z"/>
	<path class="st5" d="M279.1,426.2V443H276v-1.5l-0.1,0.1c-1.3,1.2-3.1,1.8-4.7,1.8c-1.8,0.1-3.7-0.5-5-1.7
		c-2.2-1.8-2.5-4.3-2.5-7.3v-8.4h3.6v8.4c0,1.9,0.3,3.6,1.4,4.6c0.7,0.7,1.7,0.9,2.9,0.9c0.9,0,1.7-0.3,2.3-0.8
		c0.7-0.5,1.2-1.4,1.4-2.4c0.2-0.9,0.2-2.1,0.2-3.3v0v-7.3H279.1z"/>
	<path class="st5" d="M288.7,428.9v7.1c0,1.3,0,2.3,0.4,2.9c0.4,0.7,1.1,1.1,1.8,1.1c0.8,0.1,1.9,0.1,2.8-0.1v3.1
		c-1.3,0.3-3.3,0.4-4.4,0.1c-1.5-0.4-2.7-1.1-3.3-2.4c-0.7-1.3-0.7-2.8-0.7-4.5v-7.3h-3.6v-2.8h3.6v-4.7h3.5v4.7h5v2.8H288.7z"/>
	<path class="st5" d="M301.3,438.6c0.8,1.1,2.1,1.6,3.5,1.6s2.7-0.6,3.5-1.6c0.2-0.3,0.3-0.5,0.4-0.7l3.5,1.5c-0.3,0.5-0.6,1-1,1.4
		c-1.6,1.8-4,2.8-6.4,2.7c-2.5-0.1-4.8-0.9-6.3-2.8c-1.4-1.8-2-3.9-2-6.1c0.1-2.3,0.6-4.4,2-6.1c1.5-1.8,3.9-2.8,6.3-2.8
		s4.8,0.9,6.3,2.8c1.4,1.7,2,3.9,2,6.1c0,0.3,0,0.7-0.1,1h-12.8C300.4,436.7,300.7,437.8,301.3,438.6z M301.3,430.6
		c-0.5,0.6-0.8,1.3-0.9,2.1h8.8c-0.2-0.8-0.4-1.5-0.9-2.1c-0.8-1.1-2.1-1.7-3.5-1.6C303.5,429,302.2,429.5,301.3,430.6z"/>
	<path class="st5" d="M327.3,426.1v3.3c-0.8-0.3-1.8-0.5-2.9-0.4c-1.3,0.1-2.3,0.5-2.9,1.2c-1.1,1.1-1.3,2.5-1.3,4.2v8.6h-3.5v-16.9
		h3.1v2.4c0.4-0.7,0.9-1.3,1.7-1.8c1-0.7,2.2-1,3.3-1.1C325.6,425.7,326.5,425.8,327.3,426.1z"/>
	<path class="st5" d="M351.3,436.6v-16h3.6V443h-3.1l-10.9-16v16h-3.6v-22.5h3.1L351.3,436.6z"/>
	<path class="st5" d="M363.4,424v6h8v3.5h-8v9.5h-3.5v-22.5h13.4v3.5H363.4z"/>
	<path class="st5" d="M395.8,436.4c-0.4,1.2-1,2.4-1.8,3.4c-2,2.5-5,3.7-8.2,3.7c-3.3,0-6.3-1.3-8.1-3.7c-1.9-2.3-2.6-5.1-2.6-8.1
		c0-3,0.8-5.8,2.6-8.1c1.9-2.4,4.9-3.6,8.1-3.6c3.2,0,6.2,1.2,8.2,3.6c1,1.3,1.6,2.7,2,4.1l-3.6,0.6c-0.3-0.9-0.6-1.8-1.2-2.5
		c-1.3-1.6-3.3-2.5-5.4-2.5s-4.1,0.8-5.3,2.5c-1.3,1.6-1.7,3.8-1.7,5.9s0.4,4.3,1.7,5.9c1.2,1.6,3.2,2.5,5.3,2.4
		c2.1,0,4.1-0.8,5.4-2.4c0.5-0.7,0.9-1.5,1.1-2.3L395.8,436.4z"/>
	<path class="st5" d="M408.6,432.8v2.8h-9.4v-2.8H408.6z"/>
	<path class="st5" d="M426.5,424h-7.4v19h-3.5v-19h-7.4v-3.5h18.3V424z"/>
	<path class="st5" d="M426.5,429.3c0.1-0.2,0.3-0.4,0.4-0.6c1.5-2.1,3.8-3,6.4-3c3.1,0,5.6,1.1,6.9,3.5c0.6,1.1,0.8,2.2,0.8,3.2V443
		H438v-3.1c-0.4,1.1-1.5,2-2.5,2.5c-1.3,0.7-2.7,1-4.1,1c-1.7,0-3.4-0.9-4.3-2.1c-0.8-1.1-1.2-2-1.2-3.3c0-1.8,1-3.5,2.6-4.4
		c1.8-1,3.4-1.1,5.9-1.5l3-0.4c-0.2-0.8-0.6-1.5-1.3-2c-0.8-0.6-1.8-0.8-2.9-0.8c-1.3,0-2.4,0.4-3.2,1.3c-0.1,0.2-0.3,0.3-0.4,0.5
		L426.5,429.3z M434,435.3c-2.2,0.4-4.6,0.8-4.6,2.6c0,1.3,1.1,2.4,2.6,2.4c2,0,4.4-1,5.1-3.1c0.4-1,0.4-1.8,0.4-2.5
		C436.9,434.7,435.9,434.9,434,435.3z"/>
	<path class="st5" d="M460.3,426.2v17.5c0,2.7-0.9,4.7-2.9,6c-1.7,1.1-3.4,1.3-5,1.3c-1.4,0-3-0.4-4.1-1.3c-1-0.5-2-1.4-2.6-2.4
		l3.3-1.6c0.2,0.4,0.5,0.7,0.8,0.9c0.7,0.7,1.8,1,2.7,1c1.2,0,2.3-0.3,3.1-1c1-0.8,1.3-1.6,1.2-3.1V442c-1.3,1-3,1.5-4.8,1.5
		c-2.3,0-4.4-1-5.8-2.7c-1.4-1.8-1.9-3.9-1.9-6.2c0-2.3,0.6-4.5,1.9-6.2c1.4-1.8,3.6-2.7,5.9-2.7c2,0,3.8,0.7,5.2,1.9v-1.5H460.3z
		 M455.9,438.9c0.9-1,1.3-2.7,1.3-4.3c0-1.7-0.4-3.3-1.3-4.3c-0.8-1-2-1.4-3.3-1.4c-1.5,0-2.8,0.5-3.6,1.7c-0.7,1-1.1,2.5-1.1,4.1
		s0.3,3,1,4c0.8,1.2,2.2,1.7,3.6,1.7S455.1,439.8,455.9,438.9z"/>
</g>
<rect x="545" y="273" class="st2" width="190" height="69"/>
<line class="st6" x1="640" y1="259" x2="640" y2="298"/>
<polyline class="st4" points="545,307.5 511,307.5 445.3,373.2 "/>
<line class="st4" x1="1098" y1="230.6" x2="1098" y2="382.1"/>
<path class="st4" d="M92,88.7h14.8c2.5,0,4.9-0.7,7.1-2.1l0.3-0.2c4.2-2.7,9.5-2.8,13.8-0.2l0.9,0.6c2,1.2,4.4,1.9,6.7,1.9h37.3
	c1.2,0,2.3-0.2,3.5-0.5l12.8-3.5c2.3-0.6,4.8-0.6,7.1,0l11.9,3.5c1.2,0.3,2.4,0.5,3.6,0.5h19.5c4.9,0,9.4-2.7,11.6-7.1l9.7-19
	c1.1-2.1,1.6-4.5,1.4-6.9l0-0.2c-0.4-4.9,2-9.6,6.3-12.2v0c2.1-1.3,3.8-3.1,4.9-5.2l0.5-1c2.2-4.3,6.7-7.1,11.6-7.1h15.3
	c1.4,0,2.8-0.2,4.1-0.7l11.7-3.9c2.8-0.9,5.8-0.9,8.5,0.1l10.3,3.7c1.4,0.5,2.9,0.8,4.4,0.8h11.1"/>
<g>
	<path class="st5" d="M78.1,32h3.6l6.1,19l6.2-19h3.7l-7.2,22.5h-5.1L78.1,32z"/>
	<path class="st5" d="M103.1,31.7V35h-3.5v-3.3H103.1z M103.1,37.6v16.9h-3.5V37.6H103.1z"/>
	<path class="st5" d="M123.9,46.1c0,2.3-0.5,4.4-1.9,6.2s-3.6,2.7-5.8,2.7c-2.1,0-3.9-0.6-5.2-1.9v1.4h-3.1V32h3.5v6.7
		c1.3-1,3-1.6,4.7-1.6c2.3,0,4.5,0.9,5.9,2.7C123.3,41.5,123.9,43.8,123.9,46.1z M120.2,46.1c0-1.6-0.3-3.1-1-4.1
		c-0.8-1.2-2.1-1.7-3.6-1.7c-1.3,0-2.6,0.5-3.3,1.4c-0.9,1.1-1.3,2.7-1.3,4.3c0,1.6,0.4,3.3,1.3,4.3c0.8,1,2.1,1.5,3.5,1.5
		c1.3,0,2.7-0.5,3.5-1.7C119.9,49.1,120.2,47.6,120.2,46.1z"/>
	<path class="st5" d="M138.1,37.6v3.3c-0.8-0.3-1.8-0.5-2.9-0.4c-1.3,0.1-2.3,0.5-2.9,1.2c-1.1,1.1-1.3,2.5-1.3,4.2v8.6h-3.5V37.6
		h3.1V40c0.4-0.7,0.9-1.3,1.7-1.8c1-0.7,2.2-1,3.3-1.1C136.3,37.1,137.2,37.3,138.1,37.6z"/>
	<path class="st5" d="M140.1,40.8c0.1-0.2,0.3-0.4,0.4-0.6c1.5-2.1,3.8-3,6.4-3c3.1,0,5.6,1.1,6.9,3.5c0.6,1.1,0.8,2.2,0.8,3.2v10.6
		h-3.1v-3.1c-0.4,1.1-1.5,2-2.5,2.5c-1.3,0.7-2.7,1-4.1,1c-1.7,0-3.4-0.9-4.3-2.1c-0.8-1.1-1.2-2-1.2-3.3c0-1.8,1-3.5,2.6-4.4
		c1.8-1,3.4-1.1,5.9-1.5l3-0.4c-0.2-0.8-0.6-1.5-1.3-2c-0.8-0.6-1.8-0.8-2.9-0.8c-1.3,0-2.4,0.4-3.2,1.3c-0.1,0.2-0.3,0.3-0.4,0.5
		L140.1,40.8z M147.6,46.7c-2.2,0.4-4.6,0.8-4.6,2.6c0,1.3,1.1,2.4,2.6,2.4c2,0,4.4-1,5.1-3.1c0.4-1,0.4-1.8,0.4-2.5
		C150.5,46.2,149.5,46.4,147.6,46.7z"/>
	<path class="st5" d="M164,40.4v7.1c0,1.3,0,2.3,0.4,2.9c0.4,0.7,1.1,1.1,1.8,1.1c0.8,0.1,1.9,0.1,2.8-0.1v3.1
		c-1.3,0.3-3.3,0.4-4.4,0.1c-1.5-0.4-2.7-1.1-3.3-2.4c-0.7-1.3-0.7-2.8-0.7-4.5v-7.3h-3.6v-2.8h3.6v-4.7h3.5v4.7h5v2.8H164z"/>
	<path class="st5" d="M176.6,31.7V35H173v-3.3H176.6z M176.6,37.6v16.9H173V37.6H176.6z"/>
	<path class="st5" d="M182.3,52.2c-1.4-1.8-2-3.9-2-6.1c0-2.3,0.7-4.5,2-6.1c1.5-1.8,3.9-2.8,6.3-2.8c2.4,0,4.8,0.9,6.3,2.8
		c1.5,1.8,2,3.9,2,6.1c0,2.3-0.6,4.3-2,6.1c-1.5,1.9-3.8,2.8-6.3,2.8C186.2,55,183.8,54,182.3,52.2z M193.3,46.1
		c0-1.4-0.3-2.9-1.1-4s-2.1-1.6-3.5-1.6c-1.4,0-2.8,0.5-3.5,1.6c-0.8,1.1-1.1,2.6-1.1,4s0.3,2.9,1.1,4c0.8,1.1,2.1,1.6,3.5,1.6
		c1.4,0,2.7-0.6,3.5-1.6S193.3,47.5,193.3,46.1z"/>
	<path class="st5" d="M215.7,46.1v8.4h-3.6v-8.4c0-1.9-0.3-3.6-1.4-4.6c-0.7-0.6-1.7-0.9-2.9-0.9c-0.9,0-1.7,0.3-2.3,0.8
		c-0.7,0.6-1.2,1.4-1.3,2.4c-0.2,0.9-0.2,2.1-0.2,3.3v7.4h-3.5V37.6h3.1v1.4l0.1-0.1c1.3-1.2,3.1-1.7,4.7-1.8c1.8-0.1,3.7,0.5,5,1.7
		C215.4,40.7,215.8,43.1,215.7,46.1z"/>
</g>
<g class="st1">
	<path d="M567.2,616.4c-0.6-1.3-1.2-2.3-2.3-2.9c-0.8-0.5-1.9-0.9-3-0.9c-1.1,0-2.2,0.2-3,0.7c-0.9,0.5-1.4,1.4-1.4,2.3
		c0,0.6,0.2,1.1,0.6,1.5c0.5,0.5,1.6,1,2.8,1.3l4,1.2c1.8,0.5,3.1,1.2,4.1,2.1c1.3,1.2,2,2.8,2,4.6c0,1.9-1.1,3.9-2.8,5.1
		c-1.7,1.2-3.7,1.5-6,1.5c-3,0-5.5-0.8-7.3-3.1c-1-1.3-1.6-2.8-1.9-4.3l3.6-1c0.2,1.2,0.6,2.2,1.2,3c1,1.4,2.9,2,4.6,2
		c1.3,0,2.9-0.3,3.8-1c0.8-0.6,1.1-1.5,1.1-2.3c0-0.7-0.3-1.4-0.8-1.9c-0.6-0.6-1.3-0.9-2.3-1.2l-4.2-1.2c-1.6-0.5-3.1-1.1-4.3-2.1
		c-1.3-1.1-1.8-2.7-1.8-4.2c0-2.3,1.5-4.4,3.5-5.3c1.6-0.8,3.1-0.9,4.6-0.9c1.6,0,3.3,0.3,4.7,1.1c1.9,1,3.3,2.8,4.2,5L567.2,616.4z
		"/>
	<path d="M597.9,622.1v10.2h-3.5v-10.2c0-1.3-0.2-2.1-1-2.9c-0.6-0.6-1.4-0.9-2.3-0.9c-1,0-1.9,0.4-2.5,1.1
		c-0.7,0.8-0.8,1.7-0.8,2.6v0.1v10.2h-3.5v-10.2c0-1.3-0.2-2.1-1-2.9c-0.6-0.6-1.4-0.9-2.3-0.9c-1,0-1.9,0.4-2.5,1.1
		c-0.7,0.8-0.8,1.7-0.8,2.6v10.3h-3.5v-16.9h3.1v2c1.2-1.4,2.9-2.3,4.8-2.3c1.3,0,2.8,0.6,3.9,1.5c0.5,0.4,0.8,0.8,1.1,1.3
		c1.1-1.8,3.1-2.8,5.2-2.8c1.3,0,2.8,0.6,3.9,1.5C597.6,617.9,597.9,619.8,597.9,622.1z"/>
	<path d="M601.3,618.5c0.1-0.2,0.3-0.4,0.4-0.6c1.5-2.1,3.8-3,6.4-3c3.1,0,5.6,1.1,6.9,3.5c0.6,1.1,0.8,2.2,0.8,3.2v10.6h-3.1v-3.1
		c-0.4,1.1-1.5,2-2.5,2.5c-1.3,0.7-2.7,1-4.1,1c-1.7,0-3.4-0.9-4.3-2.1c-0.8-1.1-1.2-2-1.2-3.3c0-1.8,1-3.5,2.6-4.4
		c1.8-1,3.4-1.1,5.9-1.5l3-0.4c-0.2-0.8-0.6-1.5-1.3-2c-0.8-0.6-1.8-0.8-2.9-0.8c-1.3,0-2.4,0.4-3.2,1.3c-0.1,0.2-0.3,0.3-0.4,0.5
		L601.3,618.5z M608.8,624.4c-2.2,0.4-4.6,0.8-4.6,2.6c0,1.3,1.1,2.4,2.6,2.4c2,0,4.4-1,5.1-3.1c0.4-1,0.4-1.8,0.4-2.5
		C611.7,623.9,610.7,624.1,608.8,624.4z"/>
	<path d="M630.6,615.3v3.3c-0.8-0.3-1.8-0.5-2.9-0.4c-1.3,0.1-2.3,0.5-2.9,1.2c-1.1,1.1-1.3,2.5-1.3,4.2v8.6h-3.5v-16.9h3.1v2.4
		c0.4-0.7,0.9-1.3,1.7-1.8c1-0.7,2.2-1,3.3-1.1C628.9,614.8,629.8,615,630.6,615.3z"/>
	<path d="M638.9,618.1v7.1c0,1.3,0,2.3,0.4,2.9c0.4,0.7,1.1,1.1,1.8,1.1c0.8,0.1,1.9,0.1,2.8-0.1v3.1c-1.3,0.3-3.3,0.4-4.4,0.1
		c-1.5-0.4-2.7-1.1-3.3-2.4c-0.7-1.3-0.7-2.8-0.7-4.5v-7.3h-3.6v-2.8h3.6v-4.7h3.5v4.7h5v2.8H638.9z"/>
	<path d="M663.7,623.8c0,2.3-0.5,4.4-1.9,6.2s-3.6,2.7-5.8,2.7c-1.8,0-3.5-0.5-4.8-1.6v8.6h-3.5v-24.4h3.1v1.4
		c1.3-1.2,3.2-1.9,5.1-1.9c2.3,0,4.5,0.9,5.9,2.7C663.1,619.3,663.7,621.5,663.7,623.8z M660,623.8c0-1.6-0.3-3.1-1-4.1
		c-0.8-1.2-2.1-1.7-3.6-1.7c-1.3,0-2.6,0.5-3.3,1.4c-0.9,1.1-1.3,2.7-1.3,4.3c0,1.6,0.4,3.3,1.3,4.3c0.8,1,2.1,1.5,3.5,1.5
		c1.3,0,2.7-0.5,3.5-1.7C659.7,626.8,660,625.3,660,623.8z"/>
	<path d="M682.5,623.8v8.4h-3.6v-8.4c0-1.9-0.3-3.6-1.4-4.6c-0.7-0.6-1.7-0.9-2.9-0.9c-0.9,0-1.7,0.3-2.3,0.8
		c-0.7,0.6-1.2,1.4-1.3,2.4c-0.2,0.9-0.2,2.1-0.2,3.3v7.4h-3.5v-22.5h3.1v7.1l0.1-0.1c1.3-1.2,3.1-1.7,4.7-1.8
		c1.8-0.1,3.7,0.5,5,1.7C682.1,618.4,682.5,620.8,682.5,623.8z"/>
	<path d="M687.3,629.9c-1.4-1.8-2-3.9-2-6.1c0-2.3,0.7-4.5,2-6.1c1.5-1.8,3.9-2.8,6.3-2.8c2.4,0,4.8,0.9,6.3,2.8
		c1.5,1.8,2,3.9,2,6.1c0,2.3-0.6,4.3-2,6.1c-1.5,1.9-3.8,2.8-6.3,2.8C691.1,632.7,688.8,631.8,687.3,629.9z M698.2,623.8
		c0-1.4-0.3-2.9-1.1-4s-2.1-1.6-3.5-1.6c-1.4,0-2.8,0.5-3.5,1.6c-0.8,1.1-1.1,2.6-1.1,4s0.3,2.9,1.1,4c0.8,1.1,2.1,1.6,3.5,1.6
		c1.4,0,2.7-0.6,3.5-1.6S698.2,625.2,698.2,623.8z"/>
	<path d="M720.7,623.8v8.4h-3.6v-8.4c0-1.9-0.3-3.6-1.4-4.6c-0.7-0.6-1.7-0.9-2.9-0.9c-0.9,0-1.7,0.3-2.3,0.8
		c-0.7,0.6-1.2,1.4-1.3,2.4c-0.2,0.9-0.2,2.1-0.2,3.3v7.4h-3.5v-16.9h3.1v1.4l0.1-0.1c1.3-1.2,3.1-1.7,4.7-1.8
		c1.8-0.1,3.7,0.5,5,1.7C720.4,618.4,720.7,620.8,720.7,623.8z"/>
	<path d="M728.4,627.8c0.8,1.1,2.1,1.6,3.5,1.6s2.7-0.6,3.5-1.6c0.2-0.3,0.3-0.5,0.4-0.7l3.5,1.5c-0.3,0.5-0.6,1-1,1.4
		c-1.6,1.8-4,2.8-6.4,2.7c-2.5-0.1-4.8-0.9-6.3-2.8c-1.4-1.8-2-3.9-2-6.1c0.1-2.3,0.6-4.4,2-6.1c1.5-1.8,3.9-2.8,6.3-2.8
		s4.8,0.9,6.3,2.8c1.4,1.7,2,3.9,2,6.1c0,0.3,0,0.7-0.1,1h-12.8C727.5,625.8,727.7,626.9,728.4,627.8z M728.4,619.8
		c-0.5,0.6-0.8,1.3-0.9,2.1h8.8c-0.2-0.8-0.4-1.5-0.9-2.1c-0.8-1.1-2.1-1.7-3.5-1.6C730.5,618.2,729.2,618.7,728.4,619.8z"/>
</g>
</svg>
