<?xml version="1.0" encoding="utf-8"?>
<!-- Generator: Adobe Illustrator 21.0.2, SVG Export Plug-In . SVG Version: 6.00 Build 0)  -->
<svg version="1.1" id="Ebene_1" xmlns="http://www.w3.org/2000/svg" xmlns:xlink="http://www.w3.org/1999/xlink" x="0px" y="0px"
	 viewBox="0 0 1280 710" style="enable-background:new 0 0 1280 710;" xml:space="preserve">
<style type="text/css">
	.st0{fill:#C8C8C8;}
	.st1{fill:#DCDCDC;}
	.st2{fill:none;stroke:#8C8C8C;stroke-width:4;stroke-miterlimit:10;}
	.st3{fill:#8C8C8C;}
	.st4{fill:#8C8C8C;stroke:#8C8C8C;stroke-width:4;stroke-miterlimit:10;}
	.st5{fill:#505050;}
	.st6{fill:#FFFFFF;}
	.st7{fill:#323232;}
</style>
<rect y="328.7" class="st0" width="1280" height="148"/>
<path class="st1" d="M290,539.7c-18.2,0-33-61.3-33-137s14.8-137,33-137h703.7c18.2,0,33,61.3,33,137s-14.8,137-33,137H290z"/>
<path class="st2" d="M656.9,267.4c-9.3,9.3-24.5,9.3-33.8,0"/>
<path class="st2" d="M663.5,274c-13,13-34,13-46.9,0"/>
<path class="st2" d="M650.1,260.6c-5.6,5.6-14.6,5.6-20.2,0"/>
<g>
	<path class="st3" d="M528.8,601.5l1.7,1.7l-2.2,2.3l-1.8-1.8c-1.8,1.2-3.9,1.8-6.1,1.8c-3.2,0-6.3-1.2-8.2-3.7
		c-1.8-2.3-2.6-5.1-2.6-8.1c0-3,0.8-5.8,2.6-8.1c1.9-2.4,4.9-3.6,8.2-3.6c3.2,0,6.2,1.2,8.1,3.6c1.9,2.3,2.5,5.1,2.6,8.1
		C531.1,596.6,530.5,599.3,528.8,601.5z M524.1,601.2l-2.1-2.1l2.2-2.2l2.1,2.1c0.9-1.5,1.2-3.4,1.2-5.2c0-2.1-0.4-4.3-1.7-5.9
		c-1.2-1.6-3.2-2.5-5.3-2.4c-2.1,0-4.2,0.8-5.3,2.4c-1.3,1.6-1.6,3.8-1.7,5.9c0,2.1,0.4,4.3,1.7,5.9c1.2,1.6,3.3,2.5,5.3,2.4
		C521.7,602.1,523,601.8,524.1,601.2z"/>
	<path class="st3" d="M547.9,596.3l4.3,8.7h-4l-3.9-8h-5.9v8h-3.5v-22.5h9.9c0.8,0,1.6,0.1,2.3,0.4c1.3,0.4,2.5,1.3,3.4,2.4
		c1,1.3,1.6,2.9,1.7,4.5c0,1.6-0.6,3.2-1.6,4.4C549.9,595.1,549,595.8,547.9,596.3z M538.4,593.7h6.4c1,0,2.2-0.6,2.9-1.5
		c0.5-0.7,0.9-1.5,0.8-2.4c0-1-0.4-1.9-1-2.6c-0.7-0.8-1.8-1.3-2.8-1.3h-6.4V593.7z"/>
	<path class="st3" d="M563.8,594.7v2.8h-9.4v-2.8H563.8z"/>
	<path class="st3" d="M587.6,598.3c-0.4,1.2-1,2.4-1.8,3.4c-2,2.5-5,3.7-8.2,3.7c-3.3,0-6.3-1.3-8.1-3.7c-1.9-2.3-2.6-5.1-2.6-8.1
		c0-3,0.8-5.8,2.6-8.1c1.9-2.4,4.9-3.6,8.1-3.6c3.2,0,6.2,1.2,8.2,3.6c1,1.3,1.6,2.7,2,4.1l-3.6,0.6c-0.3-0.9-0.6-1.8-1.2-2.5
		c-1.3-1.6-3.3-2.5-5.4-2.5s-4.1,0.8-5.3,2.5c-1.3,1.6-1.7,3.8-1.7,5.9s0.4,4.3,1.7,5.9c1.2,1.6,3.2,2.5,5.3,2.4
		c2.1,0,4.1-0.8,5.4-2.4c0.5-0.7,0.9-1.5,1.1-2.3L587.6,598.3z"/>
	<path class="st3" d="M592.3,602.7c-1.4-1.8-2-3.9-2-6.1c0-2.3,0.7-4.5,2-6.1c1.5-1.8,3.9-2.8,6.3-2.8c2.4,0,4.8,0.9,6.3,2.8
		c1.5,1.8,2,3.9,2,6.1c0,2.3-0.6,4.3-2,6.1c-1.5,1.9-3.8,2.8-6.3,2.8C596.2,605.4,593.8,604.5,592.3,602.7z M603.3,596.5
		c0-1.4-0.3-2.9-1.1-4s-2.1-1.6-3.5-1.6c-1.4,0-2.8,0.5-3.5,1.6c-0.8,1.1-1.1,2.6-1.1,4s0.3,2.9,1.1,4c0.8,1.1,2.1,1.6,3.5,1.6
		c1.4,0,2.7-0.6,3.5-1.6S603.3,598,603.3,596.5z"/>
	<path class="st3" d="M625.6,582.5V605h-3.1v-1.4c-1.3,1.3-3.2,1.9-5.3,1.9c-2.3,0-4.4-1-5.8-2.7c-1.4-1.8-1.9-3.9-1.9-6.2
		c0-2.3,0.6-4.5,1.9-6.2c1.4-1.8,3.6-2.7,5.9-2.7c1.8,0,3.4,0.6,4.7,1.6v-6.7H625.6z M622.5,596.5c0-1.7-0.4-3.3-1.3-4.3
		c-0.8-1-2-1.4-3.3-1.4c-1.5,0-2.8,0.5-3.6,1.7c-0.7,1-1.1,2.5-1.1,4.1s0.3,3,1,4c0.8,1.2,2.2,1.7,3.6,1.7s2.6-0.5,3.4-1.5
		C622.1,599.8,622.5,598.2,622.5,596.5z"/>
	<path class="st3" d="M633.9,600.5c0.8,1.1,2.1,1.6,3.5,1.6s2.7-0.6,3.5-1.6c0.2-0.3,0.3-0.5,0.4-0.7l3.5,1.5c-0.3,0.5-0.6,1-1,1.4
		c-1.6,1.8-4,2.8-6.4,2.7c-2.5-0.1-4.8-0.9-6.3-2.8c-1.4-1.8-2-3.9-2-6.1c0.1-2.3,0.6-4.4,2-6.1c1.5-1.8,3.9-2.8,6.3-2.8
		s4.8,0.9,6.3,2.8c1.4,1.7,2,3.9,2,6.1c0,0.3,0,0.7-0.1,1h-12.8C633,598.6,633.2,599.7,633.9,600.5z M633.9,592.6
		c-0.5,0.6-0.8,1.3-0.9,2.1h8.8c-0.2-0.8-0.4-1.5-0.9-2.1c-0.8-1.1-2.1-1.7-3.5-1.6C636,590.9,634.7,591.5,633.9,592.6z"/>
	<path class="st3" d="M668.7,589.1c-0.6-1.3-1.2-2.3-2.3-2.9c-0.8-0.5-1.9-0.9-3-0.9c-1.1,0-2.2,0.2-3,0.7c-0.9,0.5-1.4,1.4-1.4,2.3
		c0,0.6,0.2,1.1,0.6,1.5c0.5,0.5,1.6,1,2.8,1.3l4,1.2c1.8,0.5,3.1,1.2,4.1,2.1c1.3,1.2,2,2.8,2,4.6c0,1.9-1.1,3.9-2.8,5.1
		c-1.7,1.2-3.7,1.5-6,1.5c-3,0-5.5-0.8-7.3-3.1c-1-1.3-1.6-2.8-1.9-4.3l3.6-1c0.2,1.2,0.6,2.2,1.2,3c1,1.4,2.9,2,4.6,2
		c1.3,0,2.9-0.3,3.8-1c0.8-0.6,1.1-1.5,1.1-2.3c0-0.7-0.3-1.4-0.8-1.9c-0.6-0.6-1.3-0.9-2.3-1.2l-4.2-1.2c-1.6-0.5-3.1-1.1-4.3-2.1
		c-1.3-1.1-1.8-2.7-1.8-4.2c0-2.3,1.5-4.4,3.5-5.3c1.6-0.8,3.1-0.9,4.6-0.9c1.6,0,3.3,0.3,4.7,1.1c1.9,1,3.3,2.8,4.2,5L668.7,589.1z
		"/>
	<path class="st3" d="M687,593.3c-0.1-0.3-0.3-0.5-0.4-0.7c-0.8-1.1-2.1-1.7-3.5-1.6c-1.4,0-2.7,0.5-3.5,1.6c-0.8,1.1-1.1,2.5-1.1,4
		c0,1.4,0.3,2.9,1.1,4c0.8,1.1,2.1,1.6,3.5,1.6s2.7-0.5,3.5-1.6c0.2-0.2,0.3-0.4,0.4-0.7l3.3,1.4c-0.3,0.5-0.6,0.9-0.9,1.4
		c-1.5,1.8-3.9,2.8-6.3,2.8c-2.4,0.1-4.8-0.9-6.3-2.8c-1.4-1.7-2-3.9-2-6.1c0-2.3,0.6-4.4,2-6.1c1.6-1.9,3.9-2.8,6.3-2.8
		c2.5,0,4.8,0.9,6.3,2.8c0.4,0.5,0.7,0.9,0.9,1.4L687,593.3z"/>
	<path class="st3" d="M693.2,591.2c0.1-0.2,0.3-0.4,0.4-0.6c1.5-2.1,3.8-3,6.4-3c3.1,0,5.6,1.1,6.9,3.5c0.6,1.1,0.8,2.2,0.8,3.2V605
		h-3.1v-3.1c-0.4,1.1-1.5,2-2.5,2.5c-1.3,0.7-2.7,1-4.1,1c-1.7,0-3.4-0.9-4.3-2.1c-0.8-1.1-1.2-2-1.2-3.3c0-1.8,1-3.5,2.6-4.4
		c1.8-1,3.4-1.1,5.9-1.5l3-0.4c-0.2-0.8-0.6-1.5-1.3-2c-0.8-0.6-1.8-0.8-2.9-0.8c-1.3,0-2.4,0.4-3.2,1.3c-0.1,0.2-0.3,0.3-0.4,0.5
		L693.2,591.2z M700.7,597.2c-2.2,0.4-4.6,0.8-4.6,2.6c0,1.3,1.1,2.4,2.6,2.4c2,0,4.4-1,5.1-3.1c0.4-1,0.4-1.8,0.4-2.5
		C703.6,596.7,702.5,596.8,700.7,597.2z"/>
	<path class="st3" d="M727.1,596.6v8.4h-3.6v-8.4c0-1.9-0.3-3.6-1.4-4.6c-0.7-0.6-1.7-0.9-2.9-0.9c-0.9,0-1.7,0.3-2.3,0.8
		c-0.7,0.6-1.2,1.4-1.3,2.4c-0.2,0.9-0.2,2.1-0.2,3.3v7.4h-3.5v-16.9h3.1v1.4l0.1-0.1c1.3-1.2,3.1-1.7,4.7-1.8
		c1.8-0.1,3.7,0.5,5,1.7C726.8,591.2,727.1,593.6,727.1,596.6z"/>
	<path class="st3" d="M746.2,596.6v8.4h-3.6v-8.4c0-1.9-0.3-3.6-1.4-4.6c-0.7-0.6-1.7-0.9-2.9-0.9c-0.9,0-1.7,0.3-2.3,0.8
		c-0.7,0.6-1.2,1.4-1.3,2.4c-0.2,0.9-0.2,2.1-0.2,3.3v7.4h-3.5v-16.9h3.1v1.4l0.1-0.1c1.3-1.2,3.1-1.7,4.7-1.8
		c1.8-0.1,3.7,0.5,5,1.7C745.9,591.2,746.2,593.6,746.2,596.6z"/>
	<path class="st3" d="M753.9,600.5c0.8,1.1,2.1,1.6,3.5,1.6s2.7-0.6,3.5-1.6c0.2-0.3,0.3-0.5,0.4-0.7l3.5,1.5c-0.3,0.5-0.6,1-1,1.4
		c-1.6,1.8-4,2.8-6.4,2.7c-2.5-0.1-4.8-0.9-6.3-2.8c-1.4-1.8-2-3.9-2-6.1c0.1-2.3,0.6-4.4,2-6.1c1.5-1.8,3.9-2.8,6.3-2.8
		s4.8,0.9,6.3,2.8c1.4,1.7,2,3.9,2,6.1c0,0.3,0,0.7-0.1,1h-12.8C753,598.6,753.2,599.7,753.9,600.5z M753.9,592.6
		c-0.5,0.6-0.8,1.3-0.9,2.1h8.8c-0.2-0.8-0.4-1.5-0.9-2.1c-0.8-1.1-2.1-1.7-3.5-1.6C756,590.9,754.7,591.5,753.9,592.6z"/>
	<path class="st3" d="M779.9,588.1v3.3c-0.8-0.3-1.8-0.5-2.9-0.4c-1.3,0.1-2.3,0.5-2.9,1.2c-1.1,1.1-1.3,2.5-1.3,4.2v8.6h-3.5v-16.9
		h3.1v2.4c0.4-0.7,0.9-1.3,1.7-1.8c1-0.7,2.2-1,3.3-1.1C778.1,587.6,779,587.8,779.9,588.1z"/>
</g>
<g>
	<path class="st3" d="M1055.4,628.4v0.8c-0.1,2.9-0.8,5.7-2.6,7.9c-2,2.5-5,3.7-8.2,3.7c-3.2,0-6.3-1.2-8.1-3.7
		c-1.9-2.3-2.5-5.2-2.6-8.1c0.1-3,0.8-5.8,2.6-8.1c1.8-2.4,4.9-3.7,8.1-3.7c3.3,0,6.2,1.3,8.2,3.7c0.4,0.5,0.7,1,1,1.6l-3.3,1.5
		c-0.2-0.3-0.4-0.7-0.6-1c-1.2-1.6-3.3-2.5-5.3-2.4c-2.1,0-4.1,0.8-5.4,2.4c-1.2,1.6-1.6,3.8-1.6,5.9c0,2.1,0.4,4.3,1.6,5.9
		c1.3,1.6,3.3,2.5,5.4,2.4c2.1,0,4.1-0.8,5.3-2.4c0.8-1.1,1.2-2.3,1.4-3.7h-5.4v-2.8H1055.4z"/>
	<path class="st3" d="M1069.6,623.3v3.3c-0.8-0.3-1.8-0.5-2.9-0.4c-1.3,0.1-2.3,0.5-2.9,1.2c-1.1,1.1-1.3,2.5-1.3,4.2v8.6h-3.5
		v-16.9h3.1v2.4c0.4-0.7,0.9-1.3,1.7-1.8c1-0.7,2.2-1,3.3-1.1C1067.8,622.8,1068.7,623,1069.6,623.3z"/>
	<path class="st3" d="M1076.4,617.4v3.3h-3.5v-3.3H1076.4z M1076.4,623.3v16.9h-3.5v-16.9H1076.4z"/>
	<path class="st3" d="M1096.9,622.9v0.4h4.6v2.8h-4.6v14.1h-3.5v-14.1h-7v14.1h-3.5v-14.1h-3.6v-2.8h3.6v-0.1c0-1.3,0.3-3.1,1.6-4.4
		c1.7-1.6,4.1-1.7,6.6-1.5v3.1c-0.8-0.1-1.8-0.2-2.5,0c-1.7,0.3-2.1,1.2-2.1,2.6v0.4h7v-0.1c0-1.3,0.3-3.1,1.6-4.4
		c1.7-1.6,4.1-1.7,6.6-1.5v3.1c-0.8-0.1-1.8-0.2-2.5,0C1097.3,620.6,1096.9,621.5,1096.9,622.9z"/>
	<path class="st3" d="M1125.7,617.7v22.5h-3.1v-1.4c-1.3,1.3-3.2,1.9-5.3,1.9c-2.3,0-4.4-1-5.8-2.7c-1.4-1.8-1.9-3.9-1.9-6.2
		c0-2.3,0.6-4.5,1.9-6.2c1.4-1.8,3.6-2.7,5.9-2.7c1.8,0,3.4,0.6,4.7,1.6v-6.7H1125.7z M1122.6,631.8c0-1.7-0.4-3.3-1.3-4.3
		c-0.8-1-2-1.4-3.3-1.4c-1.5,0-2.8,0.5-3.6,1.7c-0.7,1-1.1,2.5-1.1,4.1s0.3,3,1,4c0.8,1.2,2.2,1.7,3.6,1.7s2.6-0.5,3.4-1.5
		C1122.2,635,1122.6,633.4,1122.6,631.8z"/>
	<path class="st3" d="M1134,635.7c0.8,1.1,2.1,1.6,3.5,1.6s2.7-0.6,3.5-1.6c0.2-0.3,0.3-0.5,0.4-0.7l3.5,1.5c-0.3,0.5-0.6,1-1,1.4
		c-1.6,1.8-4,2.8-6.4,2.7c-2.5-0.1-4.8-0.9-6.3-2.8c-1.4-1.8-2-3.9-2-6.1c0.1-2.3,0.6-4.4,2-6.1c1.5-1.8,3.9-2.8,6.3-2.8
		s4.8,0.9,6.3,2.8c1.4,1.7,2,3.9,2,6.1c0,0.3,0,0.7-0.1,1H1133C1133.1,633.8,1133.4,634.9,1134,635.7z M1134,627.8
		c-0.5,0.6-0.8,1.3-0.9,2.1h8.8c-0.2-0.8-0.4-1.5-0.9-2.1c-0.8-1.1-2.1-1.7-3.5-1.6C1136.1,626.1,1134.8,626.7,1134,627.8z"/>
	<path class="st3" d="M1158.6,628.6c-0.3-0.8-0.9-1.6-1.7-1.9c-0.6-0.3-1.3-0.5-2.1-0.5c-0.8,0-1.6,0.2-2.1,0.4
		c-0.6,0.3-0.8,0.8-0.8,1.2c0,0.3,0.1,0.6,0.3,0.8c0.3,0.4,1,0.7,1.9,0.9c0.8,0.3,1.9,0.5,2.9,0.8c1.3,0.4,2.3,0.7,3.3,1.5
		c1.3,1.1,2,2.4,1.9,4c-0.1,1.5-1,2.9-2.3,3.7c-1.3,0.9-3,1.1-4.7,1.1c-2.3,0-4.3-0.6-5.8-2.2c-0.8-1-1.7-2.7-1.8-3.7l3.4-0.8
		c0,0.7,0.4,1.7,0.9,2.3c0.8,0.9,2,1.2,3.2,1.2c0.9,0,2.2-0.2,2.8-0.7c0.4-0.3,0.6-0.7,0.7-1.2c0-0.4-0.1-0.8-0.5-1.2
		c-0.5-0.4-1.2-0.7-2.1-0.9s-1.8-0.5-2.8-0.8c-1.4-0.4-2.4-0.8-3.3-1.5c-1.1-0.8-1.7-2.2-1.7-3.3c0-2,1.3-3.6,3-4.3
		c1.3-0.6,2.5-0.7,3.7-0.7c1.2,0,2.4,0.3,3.6,0.8c1.7,0.8,3,2.3,3.6,4.1L1158.6,628.6z"/>
	<path class="st3" d="M980.9,657.2v6h9v3.5h-9v6h10.8v3.5h-14.4v-22.5h14.4v3.5H980.9z"/>
	<path class="st3" d="M999.7,653.4v3.3h-3.5v-3.3H999.7z M999.7,659.3v16.9h-3.5v-16.9H999.7z"/>
	<path class="st3" d="M1019.7,667.8v8.4h-3.6v-8.4c0-1.9-0.3-3.6-1.4-4.6c-0.7-0.6-1.7-0.9-2.9-0.9c-0.9,0-1.7,0.3-2.3,0.8
		c-0.7,0.6-1.2,1.4-1.3,2.4c-0.2,0.9-0.2,2.1-0.2,3.3v7.4h-3.5v-16.9h3.1v1.4l0.1-0.1c1.3-1.2,3.1-1.7,4.7-1.8
		c1.8-0.1,3.7,0.5,5,1.7C1019.4,662.4,1019.7,664.8,1019.7,667.8z"/>
	<path class="st3" d="M1027,676.2h-3.6v-22.5h3.6v11.9h2.4l4.3-6.3h4l-5.3,7.7l6,9.2h-4l-5.1-7.8h-2.4V676.2z"/>
	<path class="st3" d="M1040.3,662.4c0.1-0.2,0.3-0.4,0.4-0.6c1.5-2.1,3.8-3,6.4-3c3.1,0,5.6,1.1,6.9,3.5c0.6,1.1,0.8,2.2,0.8,3.2
		v10.6h-3.1v-3.1c-0.4,1.1-1.5,2-2.5,2.5c-1.3,0.7-2.7,1-4.1,1c-1.7,0-3.4-0.9-4.3-2.1c-0.8-1.1-1.2-2-1.2-3.3c0-1.8,1-3.5,2.6-4.4
		c1.8-1,3.4-1.1,5.9-1.5l3-0.4c-0.2-0.8-0.6-1.5-1.3-2c-0.8-0.6-1.8-0.8-2.9-0.8c-1.3,0-2.4,0.4-3.2,1.3c-0.1,0.2-0.3,0.3-0.4,0.5
		L1040.3,662.4z M1047.9,668.4c-2.2,0.4-4.6,0.8-4.6,2.6c0,1.3,1.1,2.4,2.6,2.4c2,0,4.4-1,5.1-3.1c0.4-1,0.4-1.8,0.4-2.5
		C1050.8,667.9,1049.7,668.1,1047.9,668.4z"/>
	<path class="st3" d="M1073.7,659.3v16.9h-3.1v-1.5l-0.1,0.1c-1.3,1.2-3.1,1.8-4.7,1.8c-1.8,0.1-3.7-0.5-5-1.7
		c-2.2-1.8-2.5-4.3-2.5-7.3v-8.4h3.6v8.4c0,1.9,0.3,3.6,1.4,4.6c0.7,0.7,1.7,0.9,2.9,0.9c0.9,0,1.7-0.3,2.3-0.8
		c0.7-0.5,1.2-1.4,1.4-2.4c0.2-0.9,0.2-2.1,0.2-3.3v0v-7.3H1073.7z"/>
	<path class="st3" d="M1083.3,658.9v0.4h4.6v2.8h-4.6v14.1h-3.5v-14.1h-3.6v-2.8h3.6v-0.1c0-1.3,0.3-3.1,1.6-4.4
		c1.7-1.6,4.1-1.7,6.6-1.5v3.1c-0.8-0.1-1.8-0.2-2.5,0C1083.7,656.6,1083.3,657.5,1083.3,658.9z"/>
	<path class="st3" d="M1100.3,664.6c-0.3-0.8-0.9-1.6-1.7-1.9c-0.6-0.3-1.3-0.5-2.1-0.5c-0.8,0-1.6,0.2-2.1,0.4
		c-0.6,0.3-0.8,0.8-0.8,1.2c0,0.3,0.1,0.6,0.3,0.8c0.3,0.4,1,0.7,1.9,0.9c0.8,0.3,1.9,0.5,2.9,0.8c1.3,0.4,2.3,0.7,3.3,1.5
		c1.3,1.1,2,2.4,1.9,4c-0.1,1.5-1,2.9-2.3,3.7c-1.3,0.9-3,1.1-4.7,1.1c-2.3,0-4.3-0.6-5.8-2.2c-0.8-1-1.7-2.7-1.8-3.7l3.4-0.8
		c0,0.7,0.4,1.7,0.9,2.3c0.8,0.9,2,1.2,3.2,1.2c0.9,0,2.2-0.2,2.8-0.7c0.4-0.3,0.6-0.7,0.7-1.2c0-0.4-0.1-0.8-0.5-1.2
		c-0.5-0.4-1.2-0.7-2.1-0.9s-1.8-0.5-2.8-0.8c-1.4-0.4-2.4-0.8-3.3-1.5c-1.1-0.8-1.7-2.2-1.7-3.3c0-2,1.3-3.6,3-4.3
		c1.3-0.6,2.5-0.7,3.7-0.7c1.2,0,2.4,0.3,3.6,0.8c1.7,0.8,3,2.3,3.6,4.1L1100.3,664.6z"/>
	<path class="st3" d="M1128.3,659.3l-5.2,16.9h-3.5l-3.2-11.2l-3.4,11.2h-3.3l-5.2-16.9l3.5,0l3.4,11.2l3.4-11.2h3l3.4,11.2
		l3.4-11.2H1128.3z"/>
	<path class="st3" d="M1130.2,662.4c0.1-0.2,0.3-0.4,0.4-0.6c1.5-2.1,3.8-3,6.4-3c3.1,0,5.6,1.1,6.9,3.5c0.6,1.1,0.8,2.2,0.8,3.2
		v10.6h-3.1v-3.1c-0.4,1.1-1.5,2-2.5,2.5c-1.3,0.7-2.7,1-4.1,1c-1.7,0-3.4-0.9-4.3-2.1c-0.8-1.1-1.2-2-1.2-3.3c0-1.8,1-3.5,2.6-4.4
		c1.8-1,3.4-1.1,5.9-1.5l3-0.4c-0.2-0.8-0.6-1.5-1.3-2c-0.8-0.6-1.8-0.8-2.9-0.8c-1.3,0-2.4,0.4-3.2,1.3c-0.1,0.2-0.3,0.3-0.4,0.5
		L1130.2,662.4z M1137.7,668.4c-2.2,0.4-4.6,0.8-4.6,2.6c0,1.3,1.1,2.4,2.6,2.4c2,0,4.4-1,5.1-3.1c0.4-1,0.4-1.8,0.4-2.5
		C1140.6,667.9,1139.5,668.1,1137.7,668.4z"/>
	<path class="st3" d="M1163.9,659.3v17.5c0,2.7-0.9,4.7-2.9,6c-1.7,1.1-3.4,1.3-5,1.3c-1.4,0-3-0.4-4.1-1.3c-1-0.5-2-1.4-2.6-2.4
		l3.3-1.6c0.2,0.4,0.5,0.7,0.8,0.9c0.7,0.7,1.8,1,2.7,1c1.2,0,2.3-0.3,3.1-1c1-0.8,1.3-1.6,1.2-3.1v-1.7c-1.3,1-3,1.5-4.8,1.5
		c-2.3,0-4.4-1-5.8-2.7c-1.4-1.8-1.9-3.9-1.9-6.2c0-2.3,0.6-4.5,1.9-6.2c1.4-1.8,3.6-2.7,5.9-2.7c2,0,3.8,0.7,5.2,1.9v-1.5H1163.9z
		 M1159.6,672c0.9-1,1.3-2.7,1.3-4.3c0-1.7-0.4-3.3-1.3-4.3c-0.8-1-2-1.4-3.3-1.4c-1.5,0-2.8,0.5-3.6,1.7c-0.7,1-1.1,2.5-1.1,4.1
		s0.3,3,1,4c0.8,1.2,2.2,1.7,3.6,1.7S1158.7,673,1159.6,672z"/>
	<path class="st3" d="M1172.2,671.7c0.8,1.1,2.1,1.6,3.5,1.6s2.7-0.6,3.5-1.6c0.2-0.3,0.3-0.5,0.4-0.7l3.5,1.5c-0.3,0.5-0.6,1-1,1.4
		c-1.6,1.8-4,2.8-6.4,2.7c-2.5-0.1-4.8-0.9-6.3-2.8c-1.4-1.8-2-3.9-2-6.1c0.1-2.3,0.6-4.4,2-6.1c1.5-1.8,3.9-2.8,6.3-2.8
		s4.8,0.9,6.3,2.8c1.4,1.7,2,3.9,2,6.1c0,0.3,0,0.7-0.1,1h-12.8C1171.3,669.8,1171.6,670.9,1172.2,671.7z M1172.2,663.8
		c-0.5,0.6-0.8,1.3-0.9,2.1h8.8c-0.2-0.8-0.4-1.5-0.9-2.1c-0.8-1.1-2.1-1.7-3.5-1.6C1174.3,662.1,1173,662.7,1172.2,663.8z"/>
	<path class="st3" d="M1202.7,667.8v8.4h-3.6v-8.4c0-1.9-0.3-3.6-1.4-4.6c-0.7-0.6-1.7-0.9-2.9-0.9c-0.9,0-1.7,0.3-2.3,0.8
		c-0.7,0.6-1.2,1.4-1.3,2.4c-0.2,0.9-0.2,2.1-0.2,3.3v7.4h-3.5v-16.9h3.1v1.4l0.1-0.1c1.3-1.2,3.1-1.7,4.7-1.8
		c1.8-0.1,3.7,0.5,5,1.7C1202.4,662.4,1202.8,664.8,1202.7,667.8z"/>
	<path class="st3" d="M1216.4,664.6c-0.3-0.8-0.9-1.6-1.7-1.9c-0.6-0.3-1.3-0.5-2.1-0.5c-0.8,0-1.6,0.2-2.1,0.4
		c-0.6,0.3-0.8,0.8-0.8,1.2c0,0.3,0.1,0.6,0.3,0.8c0.3,0.4,1,0.7,1.9,0.9c0.8,0.3,1.9,0.5,2.9,0.8c1.3,0.4,2.3,0.7,3.3,1.5
		c1.3,1.1,2,2.4,1.9,4c-0.1,1.5-1,2.9-2.3,3.7c-1.3,0.9-3,1.1-4.7,1.1c-2.3,0-4.3-0.6-5.8-2.2c-0.8-1-1.7-2.7-1.8-3.7l3.4-0.8
		c0,0.7,0.4,1.7,0.9,2.3c0.8,0.9,2,1.2,3.2,1.2c0.9,0,2.2-0.2,2.8-0.7c0.4-0.3,0.6-0.7,0.7-1.2c0-0.4-0.1-0.8-0.5-1.2
		c-0.5-0.4-1.2-0.7-2.1-0.9s-1.8-0.5-2.8-0.8c-1.4-0.4-2.4-0.8-3.3-1.5c-1.1-0.8-1.7-2.2-1.7-3.3c0-2,1.3-3.6,3-4.3
		c1.3-0.6,2.5-0.7,3.7-0.7c1.2,0,2.4,0.3,3.6,0.8c1.7,0.8,3,2.3,3.6,4.1L1216.4,664.6z"/>
</g>
<g>
	<path class="st3" d="M396.7,240.3v-16h3.6v22.5h-3.1l-10.9-16v16h-3.6v-22.5h3.1L396.7,240.3z"/>
	<path class="st3" d="M408.8,227.7v6h8v3.5h-8v9.5h-3.5v-22.5h13.4v3.5H408.8z"/>
	<path class="st3" d="M441.2,240.1c-0.4,1.2-1,2.4-1.8,3.4c-2,2.5-5,3.7-8.2,3.7c-3.3,0-6.3-1.3-8.1-3.7c-1.9-2.3-2.6-5.1-2.6-8.1
		c0-3,0.8-5.8,2.6-8.1c1.9-2.4,4.9-3.6,8.1-3.6c3.2,0,6.2,1.2,8.2,3.6c1,1.3,1.6,2.7,2,4.1l-3.6,0.6c-0.3-0.9-0.6-1.8-1.2-2.5
		c-1.3-1.6-3.3-2.5-5.4-2.5s-4.1,0.8-5.3,2.5c-1.3,1.6-1.7,3.8-1.7,5.9s0.4,4.3,1.7,5.9c1.2,1.6,3.2,2.5,5.3,2.4
		c2.1,0,4.1-0.8,5.4-2.4c0.5-0.7,0.9-1.5,1.1-2.3L441.2,240.1z"/>
	<path class="st3" d="M454,236.5v2.8h-9.4v-2.8H454z"/>
	<path class="st3" d="M471.9,227.7h-7.4v19H461v-19h-7.4v-3.5h18.3V227.7z"/>
	<path class="st3" d="M471.9,233c0.1-0.2,0.3-0.4,0.4-0.6c1.5-2.1,3.8-3,6.4-3c3.1,0,5.6,1.1,6.9,3.5c0.6,1.1,0.8,2.2,0.8,3.2v10.6
		h-3.1v-3.1c-0.4,1.1-1.5,2-2.5,2.5c-1.3,0.7-2.7,1-4.1,1c-1.7,0-3.4-0.9-4.3-2.1c-0.8-1.1-1.2-2-1.2-3.3c0-1.8,1-3.5,2.6-4.4
		c1.8-1,3.4-1.1,5.9-1.5l3-0.4c-0.2-0.8-0.6-1.5-1.3-2c-0.8-0.6-1.8-0.8-2.9-0.8c-1.3,0-2.4,0.4-3.2,1.3c-0.1,0.2-0.3,0.3-0.4,0.5
		L471.9,233z M479.4,239c-2.2,0.4-4.6,0.8-4.6,2.6c0,1.3,1.1,2.4,2.6,2.4c2,0,4.4-1,5.1-3.1c0.4-1,0.4-1.8,0.4-2.5
		C482.3,238.4,481.3,238.6,479.4,239z"/>
	<path class="st3" d="M505.7,229.9v17.5c0,2.7-0.9,4.7-2.9,6c-1.7,1.1-3.4,1.3-5,1.3c-1.4,0-3-0.4-4.1-1.3c-1-0.5-2-1.4-2.6-2.4
		l3.3-1.6c0.2,0.4,0.5,0.7,0.8,0.9c0.7,0.7,1.8,1,2.7,1c1.2,0,2.3-0.3,3.1-1c1-0.8,1.3-1.6,1.2-3.1v-1.7c-1.3,1-3,1.5-4.8,1.5
		c-2.3,0-4.4-1-5.8-2.7c-1.4-1.8-1.9-3.9-1.9-6.2c0-2.3,0.6-4.5,1.9-6.2c1.4-1.8,3.6-2.7,5.9-2.7c2,0,3.8,0.7,5.2,1.9v-1.5H505.7z
		 M501.3,242.6c0.9-1,1.3-2.7,1.3-4.3c0-1.7-0.4-3.3-1.3-4.3c-0.8-1-2-1.4-3.3-1.4c-1.5,0-2.8,0.5-3.6,1.7c-0.7,1-1.1,2.5-1.1,4.1
		s0.3,3,1,4c0.8,1.2,2.2,1.7,3.6,1.7S500.5,243.5,501.3,242.6z"/>
</g>
<rect x="545" y="485.7" class="st0" width="190" height="69"/>
<line class="st4" x1="640" y1="569.3" x2="640" y2="531"/>
<line class="st2" x1="1098" y1="443.3" x2="1098" y2="594.7"/>
<path class="st2" d="M92,301.4h14.8c2.5,0,4.9-0.7,7.1-2.1l0.3-0.2c4.2-2.7,9.5-2.8,13.8-0.2l0.9,0.6c2,1.2,4.4,1.9,6.7,1.9h37.3
	c1.2,0,2.3-0.2,3.5-0.5l12.8-3.5c2.3-0.6,4.8-0.6,7.1,0l11.9,3.5c1.2,0.3,2.4,0.5,3.6,0.5h19.5c4.9,0,9.4-2.7,11.6-7.1l9.7-19
	c1.1-2.1,1.6-4.5,1.4-6.9l0-0.2c-0.4-4.9,2-9.6,6.3-12.2v0c2.1-1.3,3.8-3.1,4.9-5.2l0.5-1c2.2-4.3,6.7-7.1,11.6-7.1h15.3
	c1.4,0,2.8-0.2,4.1-0.7l11.7-3.9"/>
<g>
	<path class="st3" d="M88,244.7h3.6l6.1,19l6.2-19h3.7l-7.2,22.5h-5.1L88,244.7z"/>
	<path class="st3" d="M113.1,244.4v3.3h-3.5v-3.3H113.1z M113.1,250.3v16.9h-3.5v-16.9H113.1z"/>
	<path class="st3" d="M133.9,258.8c0,2.3-0.5,4.4-1.9,6.2s-3.6,2.7-5.8,2.7c-2.1,0-3.9-0.6-5.2-1.9v1.4h-3.1v-22.5h3.5v6.7
		c1.3-1,3-1.6,4.7-1.6c2.3,0,4.5,0.9,5.9,2.7C133.3,254.2,133.9,256.5,133.9,258.8z M130.1,258.8c0-1.6-0.3-3.1-1-4.1
		c-0.8-1.2-2.1-1.7-3.6-1.7c-1.3,0-2.6,0.5-3.3,1.4c-0.9,1.1-1.3,2.7-1.3,4.3c0,1.6,0.4,3.3,1.3,4.3c0.8,1,2.1,1.5,3.5,1.5
		c1.3,0,2.7-0.5,3.5-1.7C129.9,261.8,130.1,260.3,130.1,258.8z"/>
	<path class="st3" d="M148,250.3v3.3c-0.8-0.3-1.8-0.5-2.9-0.4c-1.3,0.1-2.3,0.5-2.9,1.2c-1.1,1.1-1.3,2.5-1.3,4.2v8.6h-3.5v-16.9
		h3.1v2.4c0.4-0.7,0.9-1.3,1.7-1.8c1-0.7,2.2-1,3.3-1.1C146.3,249.8,147.1,250,148,250.3z"/>
	<path class="st3" d="M150,253.4c0.1-0.2,0.3-0.4,0.4-0.6c1.5-2.1,3.8-3,6.4-3c3.1,0,5.6,1.1,6.9,3.5c0.6,1.1,0.8,2.2,0.8,3.2v10.6
		h-3.1v-3.1c-0.4,1.1-1.5,2-2.5,2.5c-1.3,0.7-2.7,1-4.1,1c-1.7,0-3.4-0.9-4.3-2.1c-0.8-1.1-1.2-2-1.2-3.3c0-1.8,1-3.5,2.6-4.4
		c1.8-1,3.4-1.1,5.9-1.5l3-0.4c-0.2-0.8-0.6-1.5-1.3-2c-0.8-0.6-1.8-0.8-2.9-0.8c-1.3,0-2.4,0.4-3.2,1.3c-0.1,0.2-0.3,0.3-0.4,0.5
		L150,253.4z M157.6,259.4c-2.2,0.4-4.6,0.8-4.6,2.6c0,1.3,1.1,2.4,2.6,2.4c2,0,4.4-1,5.1-3.1c0.4-1,0.4-1.8,0.4-2.5
		C160.5,258.9,159.4,259.1,157.6,259.4z"/>
	<path class="st3" d="M173.9,253.1v7.1c0,1.3,0,2.3,0.4,2.9c0.4,0.7,1.1,1.1,1.8,1.1c0.8,0.1,1.9,0.1,2.8-0.1v3.1
		c-1.3,0.3-3.3,0.4-4.4,0.1c-1.5-0.4-2.7-1.1-3.3-2.4c-0.7-1.3-0.7-2.8-0.7-4.5v-7.3h-3.6v-2.8h3.6v-4.7h3.5v4.7h5v2.8H173.9z"/>
	<path class="st3" d="M186.5,244.4v3.3H183v-3.3H186.5z M186.5,250.3v16.9H183v-16.9H186.5z"/>
	<path class="st3" d="M192.2,264.9c-1.4-1.8-2-3.9-2-6.1c0-2.3,0.7-4.5,2-6.1c1.5-1.8,3.9-2.8,6.3-2.8c2.4,0,4.8,0.9,6.3,2.8
		c1.5,1.8,2,3.9,2,6.1c0,2.3-0.6,4.3-2,6.1c-1.5,1.9-3.8,2.8-6.3,2.8C196.1,267.7,193.8,266.7,192.2,264.9z M203.2,258.8
		c0-1.4-0.3-2.9-1.1-4s-2.1-1.6-3.5-1.6c-1.4,0-2.8,0.5-3.5,1.6c-0.8,1.1-1.1,2.6-1.1,4s0.3,2.9,1.1,4c0.8,1.1,2.1,1.6,3.5,1.6
		c1.4,0,2.7-0.6,3.5-1.6S203.2,260.2,203.2,258.8z"/>
	<path class="st3" d="M225.7,258.8v8.4h-3.6v-8.4c0-1.9-0.3-3.6-1.4-4.6c-0.7-0.6-1.7-0.9-2.9-0.9c-0.9,0-1.7,0.3-2.3,0.8
		c-0.7,0.6-1.2,1.4-1.3,2.4c-0.2,0.9-0.2,2.1-0.2,3.3v7.4h-3.5v-16.9h3.1v1.4l0.1-0.1c1.3-1.2,3.1-1.7,4.7-1.8
		c1.8-0.1,3.7,0.5,5,1.7C225.4,253.4,225.7,255.8,225.7,258.8z"/>
</g>
<g>
	<path class="st3" d="M925.9,66.5c-0.6-1.3-1.2-2.3-2.3-2.9c-0.8-0.5-1.9-0.9-3-0.9c-1.1,0-2.2,0.2-3,0.7c-0.9,0.5-1.4,1.4-1.4,2.3
		c0,0.6,0.2,1.1,0.6,1.5c0.5,0.5,1.6,1,2.8,1.3l4,1.2c1.8,0.5,3.1,1.2,4.1,2.1c1.3,1.2,2,2.8,2,4.6c0,1.9-1.1,3.9-2.8,5.1
		c-1.7,1.2-3.7,1.5-6,1.5c-3,0-5.5-0.8-7.3-3.1c-1-1.3-1.6-2.8-1.9-4.3l3.6-1c0.2,1.2,0.6,2.2,1.2,3c1,1.4,2.9,2,4.6,2
		c1.3,0,2.9-0.3,3.8-1c0.8-0.6,1.1-1.5,1.1-2.3c0-0.7-0.3-1.4-0.8-1.9c-0.6-0.6-1.3-0.9-2.3-1.2l-4.2-1.2c-1.6-0.5-3.1-1.1-4.3-2.1
		c-1.3-1.1-1.8-2.7-1.8-4.2c0-2.3,1.5-4.4,3.5-5.3c1.6-0.8,3.1-0.9,4.6-0.9c1.6,0,3.3,0.3,4.7,1.1c1.9,1,3.3,2.8,4.2,5L925.9,66.5z"
		/>
	<path class="st3" d="M956.6,72.2v10.2h-3.5V72.2c0-1.3-0.2-2.1-1-2.9c-0.6-0.6-1.4-0.9-2.3-0.9c-1,0-1.9,0.4-2.5,1.1
		c-0.7,0.8-0.8,1.7-0.8,2.6v0.1v10.2h-3.5V72.2c0-1.3-0.2-2.1-1-2.9c-0.6-0.6-1.4-0.9-2.3-0.9c-1,0-1.9,0.4-2.5,1.1
		c-0.7,0.8-0.8,1.7-0.8,2.6v10.3h-3.5V65.4h3.1v2c1.2-1.4,2.9-2.3,4.8-2.3c1.3,0,2.8,0.6,3.9,1.5c0.5,0.4,0.8,0.8,1.1,1.3
		c1.1-1.8,3.1-2.8,5.2-2.8c1.3,0,2.8,0.6,3.9,1.5C956.3,68,956.6,69.9,956.6,72.2z"/>
	<path class="st3" d="M960,68.6c0.1-0.2,0.3-0.4,0.4-0.6c1.5-2.1,3.8-3,6.4-3c3.1,0,5.6,1.1,6.9,3.5c0.6,1.1,0.8,2.2,0.8,3.2v10.6
		h-3.1v-3.1c-0.4,1.1-1.5,2-2.5,2.5c-1.3,0.7-2.7,1-4.1,1c-1.7,0-3.4-0.9-4.3-2.1c-0.8-1.1-1.2-2-1.2-3.3c0-1.8,1-3.5,2.6-4.4
		c1.8-1,3.4-1.1,5.9-1.5l3-0.4c-0.2-0.8-0.6-1.5-1.3-2c-0.8-0.6-1.8-0.8-2.9-0.8c-1.3,0-2.4,0.4-3.2,1.3c-0.1,0.2-0.3,0.3-0.4,0.5
		L960,68.6z M967.5,74.5c-2.2,0.4-4.6,0.8-4.6,2.6c0,1.3,1.1,2.4,2.6,2.4c2,0,4.4-1,5.1-3.1c0.4-1,0.4-1.8,0.4-2.5
		C970.5,74,969.4,74.2,967.5,74.5z"/>
	<path class="st3" d="M989.4,65.4v3.3c-0.8-0.3-1.8-0.5-2.9-0.4c-1.3,0.1-2.3,0.5-2.9,1.2c-1.1,1.1-1.3,2.5-1.3,4.2v8.6h-3.5V65.4
		h3.1v2.4c0.4-0.7,0.9-1.3,1.7-1.8c1-0.7,2.2-1,3.3-1.1C987.6,64.9,988.5,65.1,989.4,65.4z"/>
	<path class="st3" d="M997.6,68.2v7.1c0,1.3,0,2.3,0.4,2.9c0.4,0.7,1.1,1.1,1.8,1.1c0.8,0.1,1.9,0.1,2.8-0.1v3.1
		c-1.3,0.3-3.3,0.4-4.4,0.1c-1.5-0.4-2.7-1.1-3.3-2.4c-0.7-1.3-0.7-2.8-0.7-4.5v-7.3h-3.6v-2.8h3.6v-4.7h3.5v4.7h5v2.8H997.6z"/>
	<path class="st3" d="M1022.4,73.9c0,2.3-0.5,4.4-1.9,6.2s-3.6,2.7-5.8,2.7c-1.8,0-3.5-0.5-4.8-1.6v8.6h-3.5V65.4h3.1v1.4
		c1.3-1.2,3.2-1.9,5.1-1.9c2.3,0,4.5,0.9,5.9,2.7C1021.8,69.3,1022.4,71.6,1022.4,73.9z M1018.7,73.9c0-1.6-0.3-3.1-1-4.1
		c-0.8-1.2-2.1-1.7-3.6-1.7c-1.3,0-2.6,0.5-3.3,1.4c-0.9,1.1-1.3,2.7-1.3,4.3c0,1.6,0.4,3.3,1.3,4.3c0.8,1,2.1,1.5,3.5,1.5
		c1.3,0,2.7-0.5,3.5-1.7C1018.4,76.9,1018.7,75.4,1018.7,73.9z"/>
	<path class="st3" d="M1041.2,73.9v8.4h-3.6v-8.4c0-1.9-0.3-3.6-1.4-4.6c-0.7-0.6-1.7-0.9-2.9-0.9c-0.9,0-1.7,0.3-2.3,0.8
		c-0.7,0.6-1.2,1.4-1.3,2.4c-0.2,0.9-0.2,2.1-0.2,3.3v7.4h-3.5V59.8h3.1v7.1l0.1-0.1c1.3-1.2,3.1-1.7,4.7-1.8c1.8-0.1,3.7,0.5,5,1.7
		C1040.9,68.5,1041.2,70.9,1041.2,73.9z"/>
	<path class="st3" d="M1046,80c-1.4-1.8-2-3.9-2-6.1c0-2.3,0.7-4.5,2-6.1c1.5-1.8,3.9-2.8,6.3-2.8c2.4,0,4.8,0.9,6.3,2.8
		c1.5,1.8,2,3.9,2,6.1c0,2.3-0.6,4.3-2,6.1c-1.5,1.9-3.8,2.8-6.3,2.8C1049.9,82.8,1047.5,81.8,1046,80z M1057,73.9
		c0-1.4-0.3-2.9-1.1-4s-2.1-1.6-3.5-1.6c-1.4,0-2.8,0.5-3.5,1.6c-0.8,1.1-1.1,2.6-1.1,4s0.3,2.9,1.1,4c0.8,1.1,2.1,1.6,3.5,1.6
		c1.4,0,2.7-0.6,3.5-1.6S1057,75.3,1057,73.9z"/>
	<path class="st3" d="M1079.4,73.9v8.4h-3.6v-8.4c0-1.9-0.3-3.6-1.4-4.6c-0.7-0.6-1.7-0.9-2.9-0.9c-0.9,0-1.7,0.3-2.3,0.8
		c-0.7,0.6-1.2,1.4-1.3,2.4c-0.2,0.9-0.2,2.1-0.2,3.3v7.4h-3.5V65.4h3.1v1.4l0.1-0.1c1.3-1.2,3.1-1.7,4.7-1.8c1.8-0.1,3.7,0.5,5,1.7
		C1079.1,68.5,1079.5,70.9,1079.4,73.9z"/>
	<path class="st3" d="M1087.1,77.8c0.8,1.1,2.1,1.6,3.5,1.6s2.7-0.6,3.5-1.6c0.2-0.3,0.3-0.5,0.4-0.7l3.5,1.5c-0.3,0.5-0.6,1-1,1.4
		c-1.6,1.8-4,2.8-6.4,2.7c-2.5-0.1-4.8-0.9-6.3-2.8c-1.4-1.8-2-3.9-2-6.1c0.1-2.3,0.6-4.4,2-6.1c1.5-1.8,3.9-2.8,6.3-2.8
		s4.8,0.9,6.3,2.8c1.4,1.7,2,3.9,2,6.1c0,0.3,0,0.7-0.1,1H1086C1086.2,75.9,1086.5,77,1087.1,77.8z M1087.1,69.9
		c-0.5,0.6-0.8,1.3-0.9,2.1h8.8c-0.2-0.8-0.4-1.5-0.9-2.1c-0.8-1.1-2.1-1.7-3.5-1.6C1089.2,68.3,1087.9,68.8,1087.1,69.9z"/>
</g>
<rect x="491.6" y="301.4" class="st5" width="296.9" height="101.3"/>
<line class="st2" x1="765.7" y1="380.7" x2="811.4" y2="380.7"/>
<g>
	<path class="st3" d="M822.5,370.7v6h9v3.5h-9v6h10.8v3.5h-14.4v-22.5h14.4v3.5H822.5z"/>
	<path class="st3" d="M846.4,379.4v2.8h-9.4v-2.8H846.4z"/>
	<path class="st3" d="M854,367.2v22.5h-3.5v-22.5H854z"/>
	<path class="st3" d="M873.7,381.3v8.4h-3.6v-8.4c0-1.9-0.3-3.6-1.4-4.6c-0.7-0.6-1.7-0.9-2.9-0.9c-0.9,0-1.7,0.3-2.3,0.8
		c-0.7,0.6-1.2,1.4-1.3,2.4c-0.2,0.9-0.2,2.1-0.2,3.3v7.4h-3.5v-16.9h3.1v1.4l0.1-0.1c1.3-1.2,3.1-1.7,4.7-1.8
		c1.8-0.1,3.7,0.5,5,1.7C873.4,375.9,873.7,378.3,873.7,381.3z"/>
	<path class="st3" d="M881.1,389.7h-3.6v-22.5h3.6v11.9h2.4l4.3-6.3h4l-5.3,7.7l6,9.2h-4l-5.1-7.8h-2.4V389.7z"/>
	<path class="st3" d="M919.7,378.4c0,1.8-0.4,3.8-1.3,5.5c-1.8,3.5-5.5,5.8-9.4,5.8h-7.4v-22.5h7.4c3.8,0,7.6,2.2,9.4,5.8
		C919.2,374.7,919.7,376.6,919.7,378.4z M916.1,378.4c0-1.4-0.3-2.7-0.8-3.9c-1.2-2.4-3.7-4-6.5-4h-3.6v15.9l3.6,0
		c2.6,0,5.3-1.6,6.5-4C915.8,381.2,916.1,379.8,916.1,378.4z"/>
	<path class="st3" d="M926.9,366.9v3.3h-3.5v-3.3H926.9z M926.9,372.8v16.9h-3.5v-16.9H926.9z"/>
	<path class="st3" d="M941.5,378.1c-0.3-0.8-0.9-1.6-1.7-1.9c-0.6-0.3-1.3-0.5-2.1-0.5c-0.8,0-1.6,0.2-2.1,0.4
		c-0.6,0.3-0.8,0.8-0.8,1.2c0,0.3,0.1,0.6,0.3,0.8c0.3,0.4,1,0.7,1.9,0.9c0.8,0.3,1.9,0.5,2.9,0.8c1.3,0.4,2.3,0.7,3.3,1.5
		c1.3,1.1,2,2.4,1.9,4c-0.1,1.5-1,2.9-2.3,3.7c-1.3,0.9-3,1.1-4.7,1.1c-2.3,0-4.3-0.6-5.8-2.2c-0.8-1-1.7-2.7-1.8-3.7l3.4-0.8
		c0,0.7,0.4,1.7,0.9,2.3c0.8,0.9,2,1.2,3.2,1.2c0.9,0,2.2-0.2,2.8-0.7c0.4-0.3,0.6-0.7,0.7-1.2c0-0.4-0.1-0.8-0.5-1.2
		c-0.5-0.4-1.2-0.7-2.1-0.9s-1.8-0.5-2.8-0.8c-1.4-0.4-2.4-0.8-3.3-1.5c-1.1-0.8-1.7-2.2-1.7-3.3c0-2,1.3-3.6,3-4.3
		c1.3-0.6,2.5-0.7,3.7-0.7c1.2,0,2.4,0.3,3.6,0.8c1.7,0.8,3,2.3,3.6,4.1L941.5,378.1z"/>
	<path class="st3" d="M964.5,381.3c0,2.3-0.5,4.4-1.9,6.2s-3.6,2.7-5.8,2.7c-1.8,0-3.5-0.5-4.8-1.6v8.6h-3.5v-24.4h3.1v1.4
		c1.3-1.2,3.2-1.9,5.1-1.9c2.3,0,4.5,0.9,5.9,2.7C963.9,376.7,964.5,379,964.5,381.3z M960.7,381.3c0-1.6-0.3-3.1-1-4.1
		c-0.8-1.2-2.1-1.7-3.6-1.7c-1.3,0-2.6,0.5-3.3,1.4c-0.9,1.1-1.3,2.7-1.3,4.3c0,1.6,0.4,3.3,1.3,4.3c0.8,1,2.1,1.5,3.5,1.5
		c1.3,0,2.7-0.5,3.5-1.7C960.5,384.3,960.7,382.8,960.7,381.3z"/>
	<path class="st3" d="M967.9,389.7v-23h3.5v23H967.9z"/>
	<path class="st3" d="M975.5,375.9c0.1-0.2,0.3-0.4,0.4-0.6c1.5-2.1,3.8-3,6.4-3c3.1,0,5.6,1.1,6.9,3.5c0.6,1.1,0.8,2.2,0.8,3.2
		v10.6h-3.1v-3.1c-0.4,1.1-1.5,2-2.5,2.5c-1.3,0.7-2.7,1-4.1,1c-1.7,0-3.4-0.9-4.3-2.1c-0.8-1.1-1.2-2-1.2-3.3c0-1.8,1-3.5,2.6-4.4
		c1.8-1,3.4-1.1,5.9-1.5l3-0.4c-0.2-0.8-0.6-1.5-1.3-2c-0.8-0.6-1.8-0.8-2.9-0.8c-1.3,0-2.4,0.4-3.2,1.3c-0.1,0.2-0.3,0.3-0.4,0.5
		L975.5,375.9z M983,381.9c-2.2,0.4-4.6,0.8-4.6,2.6c0,1.3,1.1,2.4,2.6,2.4c2,0,4.4-1,5.1-3.1c0.4-1,0.4-1.8,0.4-2.5
		C985.9,381.4,984.8,381.6,983,381.9z"/>
	<path class="st3" d="M1008.6,372.8l-7.4,19.6c-0.6,1.7-1.4,3.1-2.5,3.9c-1.1,0.8-2.3,0.9-3.6,0.9h-0.3v-3.4l0.5,0.1
		c0.6,0.1,1.3,0,1.7-0.3c0.5-0.3,1.1-1.4,1.8-3.4l-6.8-17.4h3.6l4.9,12.9l4.8-12.9H1008.6z"/>
</g>
<line class="st2" x1="516.4" y1="239.1" x2="572.2" y2="292.3"/>
<polygon points="836.9,35.5 772.6,35.5 699.5,35.5 635.2,35.5 550.9,212.1 699.5,212.1 772.6,212.1 921.2,212.1 "/>
<polygon class="st6" points="822.2,45.6 763.6,45.6 708.5,45.6 647.9,45.6 596.9,179 708.5,179 763.6,179 875.2,179 "/>
<rect x="550.9" y="212.1" class="st7" width="370.3" height="32.8"/>
<line class="st2" x1="906" y1="72.7" x2="848.5" y2="72.7"/>
</svg>
