<?xml version="1.0" encoding="utf-8"?>
<!-- Generator: Adobe Illustrator 21.0.2, SVG Export Plug-In . SVG Version: 6.00 Build 0)  -->
<svg version="1.1" id="Ebene_1" xmlns="http://www.w3.org/2000/svg" xmlns:xlink="http://www.w3.org/1999/xlink" x="0px" y="0px"
	 viewBox="0 0 660 251.7" style="enable-background:new 0 0 660 251.7;" xml:space="preserve">
<style type="text/css">
	.st0{fill:#C9EBEE;}
</style>
<path class="st0" d="M0,0v131.1c13.5-10.4,30.3-16.6,48.7-16.6c5.9,0,11.6,0.7,17.2,1.9c11.4-23.1,35.2-38.9,62.7-38.9
	c38.6,0,69.9,31.3,69.9,69.9c0,4.2-0.4,8.2-1.1,12.2c16.7,7.5,30.4,20.6,38.6,36.9c14.1-22.7,39.2-37.7,67.8-37.7
	c15.9,0,30.8,4.7,43.2,12.7c14.1-22.6,39.2-37.6,67.7-37.6c21.8,0,41.5,8.7,55.9,22.9c7.5-2.7,15.5-4.2,23.9-4.2
	c15.3,0,29.4,4.9,40.9,13.3c14.6-19.4,37.8-32,63.9-32c16.6,0,32,5,44.7,13.7c4.5-6.2,9.9-11.7,16-16.4V0H0z"/>
</svg>
