<?xml version="1.0" encoding="utf-8"?>
<!-- Generator: Adobe Illustrator 21.0.2, SVG Export Plug-In . SVG Version: 6.00 Build 0)  -->
<svg version="1.1" id="Ebene_1" xmlns="http://www.w3.org/2000/svg" xmlns:xlink="http://www.w3.org/1999/xlink" x="0px" y="0px"
	 viewBox="0 0 660 1074" style="enable-background:new 0 0 660 1074;" xml:space="preserve">
<style type="text/css">
	.st0{opacity:0.178;fill:#188B70;}
	.st1{fill:#FFFFFF;}
	.st2{opacity:0.25;fill:#969696;enable-background:new    ;}
	.st3{opacity:0.5;fill:url(#SVGID_1_);enable-background:new    ;}
</style>
<polygon class="st0" points="660,1074 660,454.6 660,27 401,45 379,282 528.1,1074 "/>
<path class="st1" d="M535.4,0H0v251.7v307.4h44.1l356.3-197.3c-2.3-6.1-3.5-12.8-3.5-19.7c0-20.3,10.6-38.1,26.5-48.2
	c-7.1-13.3-11.1-28.5-10.8-44.7c0.9-49.1,41.2-89,90.3-89.3c11.4-0.1,22.3,1.9,32.4,5.7v0.3c14.6-19.4,37.8-32,63.9-32
	c16.6,0,32,5,44.7,13.7c4.5-6.2,9.9-11.7,16-16.4V0H535.4z"/>
<path class="st2" d="M426.3,203.1v-44.4h-98.7V191h-75.3v-72.7h-68V147h-96v143.3h101.3V339H379v-11.7c8.6,10.4,15.8,21.7,21.4,34.5
	c-2.3-6.1-3.5-12.8-3.5-19.7c0-20.3,10.6-38.1,26.5-48.2c-7.1-13.3-11.1-28.5-10.8-44.7C413,232.4,417.9,216.5,426.3,203.1z"/>
<linearGradient id="SVGID_1_" gradientUnits="userSpaceOnUse" x1="104.1915" y1="622.4854" x2="502.9997" y2="808.4526" gradientTransform="matrix(1 0 0 -1 0 1074)">
	<stop  offset="0.1645" style="stop-color:#000000"/>
	<stop  offset="0.7521" style="stop-color:#FFFFFF;stop-opacity:0"/>
</linearGradient>
<path class="st3" d="M265,0c0,0-33.3,130.3,126.7,209c141.7,69.7,233.5,285,241.6,423.3S257.3,756,257.3,756L41,316L44,0"/>
<path class="st1" d="M0,0"/>
<polyline class="st1" points="88.3,0 159.6,227.1 660,454.6 660,1074 0,1074 0,0 "/>
</svg>
