<?xml version="1.0" encoding="utf-8"?>
<!-- Generator: Adobe Illustrator 21.0.2, SVG Export Plug-In . SVG Version: 6.00 Build 0)  -->
<svg version="1.1" id="Ebene_1" xmlns="http://www.w3.org/2000/svg" xmlns:xlink="http://www.w3.org/1999/xlink" x="0px" y="0px"
	 viewBox="0 0 1207.9 520" style="enable-background:new 0 0 1207.9 520;" xml:space="preserve">
<style type="text/css">
	.st0{fill:#515C70;}
	.st1{fill:#FFD5B7;}
	.st2{fill:#B04459;}
	.st3{fill:#AAAAAA;}
	.st4{fill:#828282;}
	.st5{fill:#FFFFFF;}
</style>
<path class="st0" d="M805.9,173.8c0,0-22-20.1-12.5-49.9c7.5-23.5,19.4-26.3,26.4-28.8c7.1-2.5,21.9-16.2,44.1-5.9
	c22.2,10.3,41.3,73.9,13.3,90.6"/>
<path class="st1" d="M824.7,224.7c0,0,4.1-17.3,0.7-28.8c-3.4-11.5,33.5-3,33.5-3v8.6c0,0,0.2,12.4,3.6,23.2
	c3.4,10.8-23.9,16.3-23.9,16.3"/>
<path class="st2" d="M758.5,393.2c0,0,8.7-88.5,15.1-130.9s43.7-38,73.2-38.1c24.9-0.1,57.4,5.9,66.6,39.5
	c8.5,31-0.6,129.5-0.6,129.5"/>
<rect x="421.9" y="393.2" class="st3" width="740" height="126.8"/>
<rect x="856.5" y="316.3" class="st3" width="154.5" height="76.9"/>
<rect x="459.9" y="429" class="st4" width="172.5" height="91"/>
<rect x="665.4" y="429" class="st4" width="172.5" height="91"/>
<path class="st1" d="M822.5,111.3l-7.8,6.7c-7.5,6.5-11.6,16.1-10.9,26l1.6,25.3c0.5,8.2,4.2,15.9,10.3,21.4l5.7,5.1
	c11.7,10.5,29.3,10.9,41.4,0.8l5.4-4.5c7.2-6,11.4-14.9,11.4-24.3v-26.2c0-6.8-2.2-13.5-6.3-18.9l-4.8-6.4c-6-8-15.3-12.6-25.3-12.6
	l0,0C835.5,103.7,828.2,106.4,822.5,111.3z"/>
<path class="st0" d="M800.9,144.2c0,0,23.6-10.3,35.5-21.9s12.4,24,43.1,19.5c30.7-4.5-26.3-41.4-26.3-41.4l-38.4,6.9l-13.9,17.6"/>
<path class="st1" d="M824.7,224.3c0,0,2.9,5.6,18.1,5.4c15.2-0.2,19.7-5,19.7-5l-7.7-8.5"/>
<rect x="852.9" y="265.5" class="st5" width="27.8" height="15"/>
</svg>
