<?xml version="1.0" encoding="utf-8"?>
<!-- Generator: Adobe Illustrator 21.0.2, SVG Export Plug-In . SVG Version: 6.00 Build 0)  -->
<svg version="1.1" id="Ebene_1" xmlns="http://www.w3.org/2000/svg" xmlns:xlink="http://www.w3.org/1999/xlink" x="0px" y="0px"
	 viewBox="0 0 555.1 520" style="enable-background:new 0 0 555.1 520;" xml:space="preserve">
<style type="text/css">
	.st0{fill:#FFD5B7;}
	.st1{fill:#321919;}
	.st2{fill:#188B70;}
	.st3{opacity:0.1;}
	.st4{fill:#4936A3;}
	.st5{opacity:0.1;enable-background:new    ;}
	.st6{opacity:0.1;fill:url(#SVGID_1_);enable-background:new    ;}
	.st7{opacity:0.1;fill:url(#SVGID_2_);enable-background:new    ;}
	.st8{opacity:0.1;fill:url(#SVGID_3_);enable-background:new    ;}
</style>
<g>
	<path class="st0" d="M263.6,276.1c0,0,2.6-11.6,16.3-17c8.6-3.4,17-8.2,20.3-6.3c4.3,2.6,0,14.1,0,14.1s-7.3,17.3-22,20.5"/>
	<polygon class="st1" points="293.7,282.1 275.7,275.4 303.8,239.2 322.5,242.6 	"/>
	<g>
		<path class="st2" d="M168.9,361.2l-76.6-115l51.2-17.1l56,87.5l58.1-45.1l30.1,23.3l-84.8,73.4
			C191.5,375.5,176.3,372.4,168.9,361.2z"/>
	</g>
	<path class="st0" d="M136.6,182l-18.3-20.7c0.9,4.3,1.6,8.1,1.7,11.1c2,30.3-32.6,60-32.6,60L148,218c0,0,3.4-32.6,19.7-27.7l0,0
		l0,0L136.6,182z"/>
	<g class="st3">
		<path d="M168.9,361.2l-76.6-115l51.2-17.1l56,87.5l58.1-45.1l30.1,23.3l-84.8,73.4C191.5,375.5,176.3,372.4,168.9,361.2z"/>
	</g>
	<path class="st0" d="M205.2,146.4c14.3-26.7-15.6-43.7-15.6-43.7c-69.3-32.3-69,25.4-71.8,56.1l11.5,25.1l27.3,17.1l0,0
		c14.2,9.5,20,6.2,24.6,1.5c5.9-6.2,9.7-16.5,11.5-18.3c1.6-1.9,5.3,0.5,7.7-4C203.3,174.2,192.4,170.3,205.2,146.4z"/>
	<path class="st4" d="M75.1,485.1c0,0,1.4,29.6,2.9,34.9h94.7l4-25.8l-5.6-39.9"/>
	<path class="st5" d="M75.1,485.1c0,0,0.4,7.5,0.9,15.7c49.5,6.1,86.1,0.6,100-2.2l0.7-4.3l-3.9-27.7l-32.6-2.3L75.1,485.1z"/>
	<path class="st2" d="M64.7,487.5c-6.1-1.9-9.7-8-8.5-14.2c6.6-32.6,11.9-74,11.5-140.9c-0.7-96.3,25-125.8,64-121.6
		c55.1,6.1,66.1,174.6,61,270c-0.3,6.4-5.1,11.8-11.5,12.8C124.8,502.3,83.2,493.1,64.7,487.5z"/>
	
		<linearGradient id="SVGID_1_" gradientUnits="userSpaceOnUse" x1="127.5027" y1="-73.2584" x2="214.3293" y2="-73.2584" gradientTransform="matrix(0.9562 0.2929 -0.2929 0.9562 -20.4119 153.3833)">
		<stop  offset="0" style="stop-color:#000000"/>
		<stop  offset="1" style="stop-color:#000000;stop-opacity:0"/>
	</linearGradient>
	<path class="st6" d="M205.3,146.1c1.7-3.2,2.8-6.3,3.3-9.2c-0.1-5.8-1.8-11.6-2.6-15.4l-46.4-18.4l-27.3-0.6
		c-7.3,8-10.5,20.2-12.2,32.3l2.6,14.6c0,0,11.1-9.9,13.2-15.8c0,0,21,10.4,38.8,3C183.6,132.7,197.2,139.6,205.3,146.1z"/>
	<path class="st1" d="M200,88.5c-40.8-20.6-63.6-8-63.6-8C106,93,105,130,109.8,143.7s5.2,30.1,5.2,30.1s22.6-17.3,23.1-45.7
		c0,0,20.3,12,36.6,5.2s40.3,14.5,40.3,14.5S232.1,104.7,200,88.5z"/>
	
		<linearGradient id="SVGID_2_" gradientUnits="userSpaceOnUse" x1="139.8252" y1="-123.2655" x2="149.7936" y2="-129.0207" gradientTransform="matrix(1 0 0 1 0 322)">
		<stop  offset="8.737864e-02" style="stop-color:#000000;stop-opacity:0"/>
		<stop  offset="1" style="stop-color:#000000"/>
	</linearGradient>
	<path class="st7" d="M153.2,198.9c0,0-13.2-8.3-18.3-14.8c0,0,0.3,12.8,14.3,26.7C150,207.2,151.3,202.8,153.2,198.9L153.2,198.9z"
		/>
	
		<linearGradient id="SVGID_3_" gradientUnits="userSpaceOnUse" x1="137.6514" y1="114.4952" x2="137.6514" y2="-129.4769" gradientTransform="matrix(0.9931 -0.1175 0.1175 0.9931 -4.7144 383.3836)">
		<stop  offset="0" style="stop-color:#000000"/>
		<stop  offset="0.9996" style="stop-color:#000000;stop-opacity:3.914833e-04"/>
		<stop  offset="1" style="stop-color:#000000;stop-opacity:0"/>
	</linearGradient>
	<polyline class="st8" points="98.4,240.8 100.6,375.6 121.9,483.7 161.6,476.9 140.7,370.4 149.6,242.4 	"/>
	<path class="st0" d="M154.3,478.2l5.1,26.3c0,0-13.7,5.8-30.6,5.8c0,0,5.4-11.7,1.2-28"/>
	<path class="st5" d="M154.3,478.2l-24.3,4.2c0.6,2.2,1,4.3,1.2,6.3l24.3-4.2L154.3,478.2z"/>
</g>
</svg>
