<?xml version="1.0" encoding="utf-8"?>
<!-- Generator: Adobe Illustrator 21.0.2, SVG Export Plug-In . SVG Version: 6.00 Build 0)  -->
<svg version="1.1" id="Ebene_1" xmlns="http://www.w3.org/2000/svg" xmlns:xlink="http://www.w3.org/1999/xlink" x="0px" y="0px"
	 viewBox="0 0 555.1 520" style="enable-background:new 0 0 555.1 520;" xml:space="preserve">
<style type="text/css">
	.st0{fill:#FFD5B7;}
	.st1{opacity:0.1;fill:url(#SVGID_1_);}
	.st2{fill:#515C70;}
	.st3{opacity:0.1;fill:url(#SVGID_2_);}
	.st4{fill:#4936A3;}
	.st5{opacity:0.1;}
	.st6{fill:#648870;}
	.st7{opacity:0.1;fill:url(#SVGID_3_);}
</style>
<g>
	<path class="st0" d="M140.5,182l-18.3-20.7c0.9,4.3,1.6,8.1,1.7,11.1c2,30.3-32.6,60-32.6,60l60.6-14.4c0,0,3.4-32.6,19.7-27.7h0
		l0,0L140.5,182z"/>
	<path class="st0" d="M209.1,146.4c14.3-26.7-15.6-43.7-15.6-43.7c-69.3-32.3-69,25.4-71.8,56.1l11.5,25.1l27.3,17.1l0,0
		c14.2,9.5,20,6.2,24.6,1.5c5.9-6.2,9.7-16.5,11.5-18.3c1.6-1.9,5.3,0.5,7.7-4C207.2,174.2,196.3,170.3,209.1,146.4z"/>
	
		<linearGradient id="SVGID_1_" gradientUnits="userSpaceOnUse" x1="152.0119" y1="312.1413" x2="238.8579" y2="312.1413" gradientTransform="matrix(0.9562 0.2929 -0.2929 0.9562 72.9634 -222.3291)">
		<stop  offset="0" style="stop-color:#000000"/>
		<stop  offset="1" style="stop-color:#000000;stop-opacity:0"/>
	</linearGradient>
	<path class="st1" d="M209.3,146.1c1.7-3.2,2.8-6.3,3.3-9.2c-0.1-5.8-1.8-11.6-2.6-15.4l-46.4-18.4l-27.3-0.6
		c-7.3,8-10.5,20.2-12.2,32.3l2.6,14.6c0,0,11.1-9.9,13.2-15.8c0,0,21,10.4,38.8,3C187.6,132.7,201.2,139.6,209.3,146.1z"/>
	<path class="st2" d="M203.9,88.5c-40.8-20.6-63.6-8-63.6-8C110,93,109,130,113.8,143.7c4.8,13.8,5.2,30.1,5.2,30.1
		s22.6-17.3,23.1-45.7c0,0,20.3,12,36.6,5.2c16.3-6.8,40.3,14.5,40.3,14.5S236,104.7,203.9,88.5z"/>
	<linearGradient id="SVGID_2_" gradientUnits="userSpaceOnUse" x1="143.8023" y1="198.7963" x2="153.7706" y2="193.0411">
		<stop  offset="8.737864e-02" style="stop-color:#000000;stop-opacity:0"/>
		<stop  offset="1" style="stop-color:#000000"/>
	</linearGradient>
	<path class="st3" d="M157.2,198.9c0,0-13.2-8.3-18.3-14.8c0,0,0.3,12.8,14.3,26.7C154,207.2,155.2,202.8,157.2,198.9L157.2,198.9z"
		/>
	<path class="st4" d="M75,485.1c0,0,1.4,29.6,2.9,34.9h94.7l4-25.8l-5.6-39.9"/>
	<path class="st5" d="M75,485.1c0,0,0.4,7.5,0.9,15.7c49.5,6.1,86.1,0.6,100-2.2l0.7-4.3l-3.9-27.7l-32.6-2.3L75,485.1z"/>
	<path class="st0" d="M282.1,406.9c0,0,10.7-5.1,22.6,1.1c7.5,3.8,15.9,6.8,16.1,10.2c0.3,4.4-11.3,8.4-11.3,8.4s-17.9,5.2-28.5-3"
		/>
	<polygon class="st2" points="292.9,422.9 292.3,408.9 338.1,408.2 345,420.8 	"/>
	<g>
		<path class="st6" d="M112.1,239l55.1,0.4l40.7,103.6l79.8,55.6l-8.1,32.2l-107.4-56.7L112.1,239z"/>
	</g>
	<g class="st5">
		<path d="M112.1,239l55.1,0.4l40.7,103.6l79.8,55.6l-8.1,32.2l-107.4-56.7L112.1,239z"/>
	</g>
	<path class="st0" d="M318,330.7c7.8,7.1,12.1,18.3,2.3,22.2c-5.9,2.3-21.1,0.3-36.6,6.4c-9.8,3.9-10.5-11.5-3.9-19.7
		C290.8,325.7,310.2,323.6,318,330.7z"/>
	<path class="st6" d="M70.2,487.5c-6.1-1.9-9.7-8-8.5-14.2c6.6-32.6,11.9-74,11.5-140.9c-0.7-96.3,25-125.8,64-121.6
		c55.1,6.1,66.1,174.6,61,270c-0.3,6.4-5.1,11.8-11.5,12.8C130.3,502.3,88.8,493.1,70.2,487.5z"/>
	<linearGradient id="SVGID_3_" gradientUnits="userSpaceOnUse" x1="161.8822" y1="403.5407" x2="161.8822" y2="279.5">
		<stop  offset="0" style="stop-color:#000000"/>
		<stop  offset="0.9996" style="stop-color:#000000;stop-opacity:3.914833e-04"/>
		<stop  offset="1" style="stop-color:#000000;stop-opacity:0"/>
	</linearGradient>
	<path class="st7" d="M196.1,358.3c-8.2-4.7-15-7.8-15-7.8l-18.9-59l-37-12c0,0,7.8,62,10.5,85.1c2.7,23.4,4.3,47.7,63.1,35.9
		C198.2,386.5,197.3,372.3,196.1,358.3z"/>
	<g>
		<path class="st6" d="M145.2,373.9l-30-134.9l53.9,2.5l20.7,101.8l90.3-10.9l7.7,36.2l-113.5,24.1
			C161.1,395.4,148.1,387,145.2,373.9z"/>
	</g>
</g>
</svg>
