<?xml version="1.0" encoding="utf-8"?>
<!-- Generator: Adobe Illustrator 21.0.2, SVG Export Plug-In . SVG Version: 6.00 Build 0)  -->
<svg version="1.1" id="Ebene_1" xmlns="http://www.w3.org/2000/svg" xmlns:xlink="http://www.w3.org/1999/xlink" x="0px" y="0px"
	 viewBox="0 0 555.1 520" style="enable-background:new 0 0 555.1 520;" xml:space="preserve">
<style type="text/css">
	.st0{fill:#FFD5B7;}
	.st1{fill:#188B70;}
	.st2{opacity:0.1;enable-background:new    ;}
	.st3{opacity:0.1;fill:url(#SVGID_1_);enable-background:new    ;}
	.st4{opacity:8.000000e-02;fill:url(#SVGID_2_);enable-background:new    ;}
	.st5{fill:#4936A3;}
	.st6{opacity:0.1;fill:url(#SVGID_3_);enable-background:new    ;}
	.st7{fill:#321919;}
</style>
<g>
	<path class="st0" d="M263.1,221.9l-21.4,38.4l-15.5-16.8l18.8-31.6l3.5-5.9c6.4-10.7,5.4-21.3,6.9-28.4c2.3-11,6.6-3.9,8.1-7.6
		c3.1-7.5,4.3-13.2,9.7-14.8c8-2.4,10.9,1.3,16.8,5.7c13,9.6-20.5,50.2-20.5,50.2L263.1,221.9z"/>
</g>
<path class="st1" d="M159.9,232.4l35.5,40.6l39.7-50.6l23.5,23.5l-51.7,83.8c-3.2,5.1-9.9,6.7-15,3.5l-32-20.2"/>
<path class="st2" d="M159.9,232.4l35.5,40.6l39.7-50.6l23.5,23.5l-51.7,83.8c-3.2,5.1-9.9,6.7-15,3.5l-32-20.2"/>
<path class="st0" d="M136.6,182l-18.3-20.7c0.9,4.3-7.9,7.9-7.8,10.9c8.8,30.6-23.1,60.2-23.1,60.2L146,218c0,0,3.4-32.6,19.7-27.7
	h2l0,0L136.6,182z"/>
<linearGradient id="SVGID_1_" gradientUnits="userSpaceOnUse" x1="139.8252" y1="-543.2655" x2="149.7936" y2="-549.0208" gradientTransform="matrix(1 0 0 1 0 742)">
	<stop  offset="8.737864e-02" style="stop-color:#000000;stop-opacity:0"/>
	<stop  offset="1" style="stop-color:#000000"/>
</linearGradient>
<path class="st3" d="M153.2,198.9c0,0-13.2-8.3-18.3-14.8c0,0,0.3,12.8,14.3,26.7C150,207.2,151.3,202.8,153.2,198.9L153.2,198.9z"
	/>
<linearGradient id="SVGID_2_" gradientUnits="userSpaceOnUse" x1="118.8461" y1="-126.85" x2="152.744" y2="-126.85" gradientTransform="matrix(1 0 0 1 0 320)">
	<stop  offset="0" style="stop-color:#000000;stop-opacity:0"/>
	<stop  offset="0.7573" style="stop-color:#000000"/>
</linearGradient>
<path class="st4" d="M152.8,196.2c-0.3-3.5-0.8-7.1-1.3-10.2l-14.9-4l-6.7-7.6c-7.3,0.9-13.2,4.2-10.3,13.3
	c4.7,15,19.9,21.8,27.4,24.2C147.9,207.3,149.7,200.9,152.8,196.2z"/>
<path class="st0" d="M194.7,170.8c-4.7,23.2-12.5,42.1-24.8,42.5c-20,0.6-47.6-13.4-55.9-35.5c-8.4-22.1-33.6-93.8,50-93.6
	c0,0,31.5,1.7,33.6,39.9c0.3,5.5,0.3,13.7,0.2,17.2c-0.1,3.5-1.8,6.1-2.3,12C195.1,158.2,196.3,163.5,194.7,170.8z"/>
<path class="st5" d="M75.1,485.1c0,0,1.4,29.6,2.9,34.9h94.7l4-25.8l-5.6-39.9"/>
<path class="st2" d="M75.1,485.1c0,0,0.4,7.5,0.9,15.7c49.5,6.1,86.1,0.6,100-2.2l0.7-4.3l-3.9-27.7l-32.6-2.3L75.1,485.1z"/>
<path class="st1" d="M64.7,487.5c-6.1-1.9-9.7-8-8.5-14.2c6.6-32.6,11.9-74,11.5-140.9c-0.7-96.3,25-125.8,64-121.6
	c55.1,6.1,66.1,174.6,61,270c-0.3,6.4-5.1,11.8-11.5,12.8C124.8,502.3,83.2,493.1,64.7,487.5z"/>
<linearGradient id="SVGID_3_" gradientUnits="userSpaceOnUse" x1="177.7199" y1="-245.066" x2="177.7199" y2="-489.0381" gradientTransform="matrix(0.9931 -0.1175 0.1175 0.9931 -2.258 745.2136)">
	<stop  offset="0.318" style="stop-color:#FFFFFF"/>
	<stop  offset="1" style="stop-color:#FFFFFF;stop-opacity:0"/>
</linearGradient>
<polyline class="st6" points="98.4,240.8 100.6,375.6 121.9,483.7 161.6,476.9 140.7,370.4 149.6,242.4 "/>
<path class="st0" d="M154.3,478.2l5.1,26.3c0,0-13.7,5.8-30.6,5.8c0,0,5.4-11.7,1.2-28"/>
<path class="st2" d="M154.3,478.2l-24.3,4.2c0.6,2.2,1,4.3,1.2,6.3l24.3-4.2L154.3,478.2z"/>
<path class="st7" d="M108.8,174.5c0,0,19.8-11.2,19.1-38.7c0,0,25.3,12.2,46.6,4.4c22.2-8.1,35.1-1.2,35.1-1.2s4.5-19.2-7.6-38
	C192.6,86.6,166,68.3,131,83.7C99.9,97.4,87.3,123.3,108.8,174.5z"/>
</svg>
