<?xml version="1.0" encoding="utf-8"?>
<!-- Generator: Adobe Illustrator 21.0.2, SVG Export Plug-In . SVG Version: 6.00 Build 0)  -->
<svg version="1.1" id="Ebene_1" xmlns="http://www.w3.org/2000/svg" xmlns:xlink="http://www.w3.org/1999/xlink" x="0px" y="0px"
	 viewBox="0 0 555.1 520" style="enable-background:new 0 0 555.1 520;" xml:space="preserve">
<style type="text/css">
	.st0{fill:#4936A3;}
	.st1{fill:#FFE6EA;}
	.st2{fill:#C42222;}
	.st3{fill:url(#SVGID_1_);}
	.st4{fill:#3E1B2B;}
</style>
<path class="st0" d="M60.1,500.7c0,0,0.1,14,1.6,19.3h111l4-25.8l-5.6-39.9"/>
<path class="st1" d="M170.5,86.7c0,0,33.6,7.5,27.7,37.2c-5.2,26.6,7.9,27.2,6.7,33.7c-0.9,5-6.7,3.7-7.7,6
	c-1.1,2.3-1.8,13.3-5.6,20.9c-2.9,5.9-7.5,10.7-23.9,5.8C151.4,185.4,148,218,148,218l-43.5,13c0,0,16.7-34.6,15.5-58.6
	C118.7,148.3,84,74.6,170.5,86.7z"/>
<path class="st1" d="M312.4,330.7c7.8,7.1,12.1,18.3,2.3,22.2c-5.9,2.3-21.1,0.3-36.6,6.4c-9.8,3.9-10.5-11.5-3.9-19.7
	C285.2,325.7,304.6,323.6,312.4,330.7z"/>
<path class="st2" d="M29.5,491.5c0,0,18.9-84.2,27.9-171.8S96,211,131.7,210.7c57.3,6.3,66.9,188,60.3,280.8c0,0-55.8,11-102,11
	S29.5,491.5,29.5,491.5z"/>
<g>
	
		<linearGradient id="SVGID_1_" gradientUnits="userSpaceOnUse" x1="195.9" y1="128.7953" x2="195.9" y2="283" gradientTransform="matrix(1 0 0 -1 0 522)">
		<stop  offset="0" style="stop-color:#B10808"/>
		<stop  offset="9.133505e-02" style="stop-color:#B50D0D"/>
		<stop  offset="0.4713" style="stop-color:#C01D1D"/>
		<stop  offset="0.7718" style="stop-color:#C42222"/>
	</linearGradient>
	<path class="st3" d="M139.6,373.9l-30-134.9l53.9,2.5l20.7,101.8l90.3-10.9l7.7,36.2l-113.5,24.1
		C155.5,395.4,142.5,387,139.6,373.9z"/>
</g>
<path class="st4" d="M159.5,122.3c4.1-16.6,25.2-8.6,25.2-8.6c8.2,10.2,20.3,8.8,20.3,8.8c16-19-4.8-41.2-4.8-41.2
	C189,62.6,176,73.1,154.8,69s-33,12.3-33,12.3C95.3,95.4,104.5,131,104.5,131s0.8,35.7,15.5,41.4c0,0,22.9-12.6,24.5-26.4
	S156.4,134.9,159.5,122.3z"/>
</svg>
