<?xml version="1.0" encoding="utf-8"?>
<!-- Generator: Adobe Illustrator 21.0.2, SVG Export Plug-In . SVG Version: 6.00 Build 0)  -->
<svg version="1.1" id="Ebene_1" xmlns="http://www.w3.org/2000/svg" xmlns:xlink="http://www.w3.org/1999/xlink" x="0px" y="0px"
	 viewBox="0 0 345 210" style="enable-background:new 0 0 345 210;" xml:space="preserve">
<style type="text/css">
	.st0{fill:#188B70;}
	.st1{fill:#FFFFFF;}
</style>
<polygon class="st0" points="229.6,21.3 151.1,21.3 72.4,21.3 14.9,21.3 14.9,191.6 72.4,191.6 151.1,191.6 229.6,191.6 
	263.8,191.6 334.6,21.3 "/>
<g>
	<path class="st1" d="M72.6,63.2c-1.2-2.6-2.4-4.3-4.7-5.7c-1.6-1-3.7-1.8-6-1.8c-2.4-0.1-4.6,0.4-6.1,1.5c-1.8,1-2.6,2.7-2.6,4.3
		c0,0.9,0.3,1.8,1,2.4c0.9,1,3.3,1.9,5.7,2.7l8.8,2.6c4.5,1.3,7.1,2.7,9.3,4.8c3,2.9,4.7,6.6,4.7,10.8c0,4.4-2.6,9.1-6.5,11.7
		c-3.8,2.6-8.5,3.3-13.8,3.3c-6.7,0-12.5-1.8-16.6-6.9c-2.5-3-3.8-6.5-4.6-9.9l9.7-2.6c0.4,2.5,1.2,4.7,2.6,6.3c2,2.8,6,4,9.3,4
		c2.7,0,6.1-0.8,7.9-2.1c1.6-1.2,2-2.7,2-4.2c0-1.3-0.4-2.6-1.6-3.5c-1.1-1-2.6-1.7-4.5-2.2l-9.4-3c-3.8-1-7.2-2.6-9.7-4.7
		c-3-2.6-4.4-6.3-4.4-9.9c0-5.5,3.6-10.3,8.2-12.5c3.7-1.7,7.3-2,10.7-2c3.5,0.1,7.2,0.7,10.6,2.5c4.3,2.4,7.6,6.3,9.7,11.5
		L72.6,63.2z"/>
	<path class="st1" d="M142.6,98.3h-9.7V68.1l-14.7,30.2h-3.4l-14.7-30.1v30.1h-9.7V47.7h9.7l16.5,33.6L133,47.7h9.7v50.6H142.6z"/>
	<path class="st1" d="M181.4,90.4h-20.7l-2.4,7.9h-9.9L164,47.7h14.3l15.5,50.6h-9.9L181.4,90.4z M178.7,81.4l-7.6-24.7l-7.5,24.7
		H178.7z"/>
	<path class="st1" d="M230.4,79.3l9.3,19H229l-8.3-17.2h-11.3v17.2h-9.6V47.7h23.1c1.8,0,3.5,0.3,5.2,0.8c3.4,1,6.4,3.1,8.4,6.1
		c2.1,2.8,3.3,6.4,3.4,9.9c0.1,3.5-1.2,7.1-3.4,9.9C234.9,76.4,232.9,78.2,230.4,79.3z M209.3,72.2h13.5c1.9,0,4.3-1.1,5.7-3.1
		c1-1.3,1.6-2.9,1.6-4.6c-0.1-1.8-0.7-3.7-1.8-4.9c-1.3-1.6-3.5-2.7-5.5-2.7h-13.5V72.2z"/>
	<path class="st1" d="M282.7,57.3h-16v41h-9.6v-41h-15.8v-9.6h41.5v9.6H282.7z"/>
	<path class="st1" d="M96.8,165.7h-9.7v-30.2l-14.7,30.2h-3.4l-14.7-30.1v30.1h-9.7v-50.6h9.7l16.4,33.6l16.4-33.6h9.7
		C96.8,115.2,96.8,165.7,96.8,165.7z"/>
	<path class="st1" d="M135.7,157.9H115l-2.4,7.9h-9.9l15.5-50.6h14.3l15.5,50.6h-9.9L135.7,157.9z M132.9,148.9l-7.6-24.7l-7.5,24.7
		H132.9z"/>
	<path class="st1" d="M184.7,146.7l9.3,19h-10.8l-8.3-17.2h-11.3v17.2H154v-50.6h23.1c1.8,0,3.5,0.3,5.2,0.8c3.4,1,6.4,3.1,8.4,6.1
		c2.1,2.8,3.3,6.4,3.4,9.9c0.1,3.5-1.2,7.1-3.4,9.9C189.1,143.8,187.1,145.6,184.7,146.7z M163.5,139.7h13.5c1.9,0,4.3-1.1,5.7-3.1
		c1-1.3,1.6-2.9,1.6-4.6c-0.1-1.8-0.7-3.7-1.8-4.9c-1.3-1.6-3.5-2.7-5.5-2.7h-13.5V139.7z"/>
	<path class="st1" d="M236.9,124.7h-16v41h-9.6v-41h-16v-9.6h41.5V124.7z"/>
</g>
</svg>
