<?xml version="1.0" encoding="utf-8"?>
<!-- Generator: Adobe Illustrator 21.0.2, SVG Export Plug-In . SVG Version: 6.00 Build 0)  -->
<svg version="1.1" id="Ebene_1" xmlns="http://www.w3.org/2000/svg" xmlns:xlink="http://www.w3.org/1999/xlink" x="0px" y="0px"
	 viewBox="0 0 814 520" style="enable-background:new 0 0 814 520;" xml:space="preserve">
<style type="text/css">
	.st0{fill:#CCCCCC;}
	.st1{fill:#B3B3B3;}
</style>
<path class="st0" d="M753.6,520l12.9-89.5c1.3-9.3-5.8-17.5-15.2-17.5H387.9l41.2,107H753.6z"/>
<polygon class="st1" points="496.6,520 458.7,413 437.4,413 475.4,520 "/>
<polygon class="st1" points="547.9,520 509.9,413 488.7,413 526.6,520 "/>
<polygon class="st1" points="599.1,520 561.1,413 539.9,413 577.9,520 "/>
<polygon class="st1" points="650.3,520 612.3,413 591.1,413 629.1,520 "/>
<polygon class="st1" points="701.5,520 663.6,413 642.3,413 680.3,520 "/>
<polygon class="st1" points="753.6,520 755.8,504.7 723.3,413 702.1,413 740,520 "/>
<path class="st1" d="M367.2,397.4L410.7,520h31.8l-47-132.7c-3.5-9.7-10.8-17.8-20.2-22.1l-67-30.8c-7.5-3.5-16.4-0.2-19.9,7.4
	s-0.2,16.4,7.4,19.9l67,30.8C364.8,393.4,366.4,395.2,367.2,397.4z"/>
</svg>
